<svg id="svg" fill="#ffffff" stroke="#ffffff" width="255" height="255" version="1.1" viewBox="141 141 518 518" xmlns="http://www.w3.org/2000/svg" stroke-width="8">
    <g id="IconSvg_bgCarrier" stroke-width="0"></g>
    <g id="IconSvg_tracerCarrier" stroke-linecap="round" stroke-linejoin="round" stroke="#CCCCCC" stroke-width="16">
      <path xmlns="http://www.w3.org/2000/svg" d="m472.74 311.83v-100.76c0-5.625 3-10.824 7.8711-13.637 4.8711-2.8125 10.871-2.8125 15.742 0 4.8711 2.8125 7.8711 8.0117 7.8711 13.637v85.012h85.016c5.625 0 10.82 3.0039 13.633 7.875 2.8125 4.8711 2.8125 10.871 0 15.742-2.8125 4.8711-8.0078 7.8711-13.633 7.8711h-100.76c-4.1758 0-8.1797-1.6602-11.133-4.6094-2.9492-2.9531-4.6094-6.957-4.6094-11.133zm-92.547 120.12c-2.168-2.082-4.3477-4.1953-6.5391-6.3359-10.914-11.125-20.992-22.25-30.438-33.168h-0.003906c-7.3477-8.3164-13.887-17.312-19.523-26.871-0.41797-1.2578-1.0508-2.5195-1.6797-4.1992-0.41406-1.5742-0.625-3.1953-0.62891-4.8281-0.10547-3.1445 1.1133-6.1914 3.3594-8.3945l15.953-16.586c4.5664-4.4219 8.5195-9.4336 11.758-14.902 2.8203-4.4648 4.3477-9.625 4.4062-14.906-0.11719-4.418-1.1133-8.7734-2.9375-12.805-2.2109-5.2109-5.0312-10.141-8.3984-14.691l-48.699-68.645c-3.5352-5.125-8.3945-9.1914-14.066-11.758-5.3164-2.5078-11.125-3.8008-17.004-3.7773-16.625 0.40625-32.375 7.5234-43.664 19.73-10.551 9.7461-18.801 21.723-24.141 35.059-5.082 12.898-7.6484 26.652-7.5547 40.516 0.39062 23.66 5.5312 47.004 15.113 68.645 11.031 25.305 24.832 49.312 41.145 71.582 17.762 24.328 37.34 47.273 58.566 68.645 2.2617 2.2617 4.5469 4.5039 6.8516 6.7227 3.9727 3.8281 9.2852 5.9492 14.805 5.8984 5.5156-0.046875 10.793-2.2578 14.699-6.1523l38.879-38.879c3.9883-3.9688 6.2109-9.3789 6.1602-15.004-0.046875-5.6289-2.3633-10.996-6.418-14.895zm226.05 84.559c-2.5-5.4805-6.5039-10.137-11.547-13.434l-69.484-49.332c-4.6016-3.2305-9.5234-5.9727-14.691-8.1875-4.0508-1.7422-8.4023-2.6719-12.809-2.7266-5.2852 0.027343-10.449 1.5586-14.902 4.4062-5.5977 3.1445-10.691 7.1055-15.113 11.754l-15.953 15.742-0.003906 0.003907c-2.2383 2.3438-5.3633 3.6406-8.6055 3.5703-1.7852 0.042969-3.5664-0.24219-5.2461-0.83984-1.4688-0.62891-2.7305-1.2578-3.7773-1.6797h-0.003906c-5.4336-2.9492-10.625-6.3164-15.531-10.078l-68.645 68.645c7.7656 6.5078 15.953 12.594 24.141 18.684 22.422 16.539 46.648 30.48 72.211 41.562 21.543 9.6758 44.824 14.891 68.434 15.324 13.812 0.0625 27.504-2.5781 40.305-7.7656 0.21094 0 0.41797-0.21094 0.62891-0.21094h0.003906c13.199-5.5469 24.973-14.016 34.426-24.77 5.7969-6.3867 10.609-13.605 14.273-21.414 0.78906-1.6406 1.4883-3.3203 2.1016-5.0352 2.0586-5.7266 3.125-11.762 3.1484-17.844-0.039063-5.625-1.1836-11.188-3.3594-16.375z"></path>

      </g>
     <g id="IconSvg_iconCarrier">
      <path xmlns="http://www.w3.org/2000/svg" d="m472.74 311.83v-100.76c0-5.625 3-10.824 7.8711-13.637 4.8711-2.8125 10.871-2.8125 15.742 0 4.8711 2.8125 7.8711 8.0117 7.8711 13.637v85.012h85.016c5.625 0 10.82 3.0039 13.633 7.875 2.8125 4.8711 2.8125 10.871 0 15.742-2.8125 4.8711-8.0078 7.8711-13.633 7.8711h-100.76c-4.1758 0-8.1797-1.6602-11.133-4.6094-2.9492-2.9531-4.6094-6.957-4.6094-11.133zm-92.547 120.12c-2.168-2.082-4.3477-4.1953-6.5391-6.3359-10.914-11.125-20.992-22.25-30.438-33.168h-0.003906c-7.3477-8.3164-13.887-17.312-19.523-26.871-0.41797-1.2578-1.0508-2.5195-1.6797-4.1992-0.41406-1.5742-0.625-3.1953-0.62891-4.8281-0.10547-3.1445 1.1133-6.1914 3.3594-8.3945l15.953-16.586c4.5664-4.4219 8.5195-9.4336 11.758-14.902 2.8203-4.4648 4.3477-9.625 4.4062-14.906-0.11719-4.418-1.1133-8.7734-2.9375-12.805-2.2109-5.2109-5.0312-10.141-8.3984-14.691l-48.699-68.645c-3.5352-5.125-8.3945-9.1914-14.066-11.758-5.3164-2.5078-11.125-3.8008-17.004-3.7773-16.625 0.40625-32.375 7.5234-43.664 19.73-10.551 9.7461-18.801 21.723-24.141 35.059-5.082 12.898-7.6484 26.652-7.5547 40.516 0.39062 23.66 5.5312 47.004 15.113 68.645 11.031 25.305 24.832 49.312 41.145 71.582 17.762 24.328 37.34 47.273 58.566 68.645 2.2617 2.2617 4.5469 4.5039 6.8516 6.7227 3.9727 3.8281 9.2852 5.9492 14.805 5.8984 5.5156-0.046875 10.793-2.2578 14.699-6.1523l38.879-38.879c3.9883-3.9688 6.2109-9.3789 6.1602-15.004-0.046875-5.6289-2.3633-10.996-6.418-14.895zm226.05 84.559c-2.5-5.4805-6.5039-10.137-11.547-13.434l-69.484-49.332c-4.6016-3.2305-9.5234-5.9727-14.691-8.1875-4.0508-1.7422-8.4023-2.6719-12.809-2.7266-5.2852 0.027343-10.449 1.5586-14.902 4.4062-5.5977 3.1445-10.691 7.1055-15.113 11.754l-15.953 15.742-0.003906 0.003907c-2.2383 2.3438-5.3633 3.6406-8.6055 3.5703-1.7852 0.042969-3.5664-0.24219-5.2461-0.83984-1.4688-0.62891-2.7305-1.2578-3.7773-1.6797h-0.003906c-5.4336-2.9492-10.625-6.3164-15.531-10.078l-68.645 68.645c7.7656 6.5078 15.953 12.594 24.141 18.684 22.422 16.539 46.648 30.48 72.211 41.562 21.543 9.6758 44.824 14.891 68.434 15.324 13.812 0.0625 27.504-2.5781 40.305-7.7656 0.21094 0 0.41797-0.21094 0.62891-0.21094h0.003906c13.199-5.5469 24.973-14.016 34.426-24.77 5.7969-6.3867 10.609-13.605 14.273-21.414 0.78906-1.6406 1.4883-3.3203 2.1016-5.0352 2.0586-5.7266 3.125-11.762 3.1484-17.844-0.039063-5.625-1.1836-11.188-3.3594-16.375z"></path>

      </g>
      </svg>