<svg id="svg" fill="#ffffff" stroke="#ffffff" width="240" height="240" version="1.1" viewBox="141 141 518 518" xmlns="http://www.w3.org/2000/svg" stroke-width="14">
    <g id="IconSvg_bgCarrier" stroke-width="0"></g>
    <g id="IconSvg_tracerCarrier" stroke-linecap="round" stroke-linejoin="round" stroke="#9c9c9c" stroke-width="22">
      <path xmlns="http://www.w3.org/2000/svg" d="m384.25 266.18c-20.871 0.023438-40.879 8.3242-55.637 23.082-14.758 14.758-23.059 34.766-23.082 55.637v94.465h-9.2266l-58.363 58.363c-2.9531 2.9492-6.957 4.6094-11.133 4.6094s-8.1797-1.6602-11.129-4.6094c-2.9531-2.9531-4.6133-6.957-4.6133-11.133v-49.922c-9.2031-3.2695-17.168-9.3047-22.805-17.277-5.6406-7.9766-8.6719-17.5-8.6836-27.266v-125.95 0.003906c0-12.527 4.9766-24.543 13.832-33.398 8.8594-8.8594 20.875-13.836 33.398-13.836h188.93c12.527 0 24.539 4.9766 33.398 13.836 8.8594 8.8555 13.836 20.871 13.836 33.398zm236.16 78.719v125.95c-0.011718 9.7656-3.043 19.289-8.6797 27.262s-13.605 14.008-22.809 17.277v49.926c0 4.1719-1.6602 8.1758-4.6094 11.129-2.9531 2.9531-6.957 4.6094-11.133 4.6094-4.1758 0-8.1797-1.6562-11.133-4.6094l-58.363-58.363h-119.43c-12.527 0-24.539-4.9766-33.398-13.832-8.8555-8.8594-13.832-20.871-13.832-33.398v-125.95c0-12.527 4.9766-24.539 13.832-33.398 8.8594-8.8594 20.871-13.832 33.398-13.832h188.93c12.527 0 24.539 4.9727 33.398 13.832 8.8555 8.8594 13.832 20.871 13.832 33.398zm-188.61 62.977c0-4.1758-1.6562-8.1797-4.6094-11.133s-6.957-4.6133-11.133-4.6133h-0.16016c-4.1641 0.042969-8.1445 1.7344-11.066 4.707-2.9219 2.9688-4.5469 6.9766-4.5195 11.141 0.027344 4.168 1.707 8.1523 4.668 11.086 2.9609 2.9297 6.9609 4.5703 11.129 4.5547 4.168-0.011719 8.1562-1.6797 11.098-4.6289 2.9414-2.9492 4.5938-6.9492 4.5938-11.113zm62.977 0c0-4.1758-1.6602-8.1797-4.6094-11.133-2.9531-2.9531-6.957-4.6133-11.133-4.6133h-0.16016c-4.1641 0.042969-8.1445 1.7344-11.066 4.707-2.9219 2.9688-4.5469 6.9766-4.5195 11.141 0.027344 4.168 1.707 8.1523 4.668 11.086 2.9609 2.9297 6.9609 4.5703 11.129 4.5547 4.168-0.011719 8.1562-1.6797 11.098-4.6289s4.5938-6.9492 4.5938-11.113zm62.977 0c0-4.1758-1.6602-8.1797-4.6133-11.133-2.9492-2.9531-6.957-4.6133-11.129-4.6133h-0.16016c-4.1641 0.042969-8.1445 1.7344-11.066 4.707-2.9219 2.9688-4.5469 6.9766-4.5195 11.141 0.027344 4.168 1.707 8.1523 4.668 11.086 2.9609 2.9297 6.9609 4.5703 11.129 4.5547 4.1641-0.011719 8.1562-1.6797 11.098-4.6289s4.5938-6.9492 4.5938-11.113z"></path>

      </g>
     <g id="IconSvg_iconCarrier">
      <path xmlns="http://www.w3.org/2000/svg" d="m384.25 266.18c-20.871 0.023438-40.879 8.3242-55.637 23.082-14.758 14.758-23.059 34.766-23.082 55.637v94.465h-9.2266l-58.363 58.363c-2.9531 2.9492-6.957 4.6094-11.133 4.6094s-8.1797-1.6602-11.129-4.6094c-2.9531-2.9531-4.6133-6.957-4.6133-11.133v-49.922c-9.2031-3.2695-17.168-9.3047-22.805-17.277-5.6406-7.9766-8.6719-17.5-8.6836-27.266v-125.95 0.003906c0-12.527 4.9766-24.543 13.832-33.398 8.8594-8.8594 20.875-13.836 33.398-13.836h188.93c12.527 0 24.539 4.9766 33.398 13.836 8.8594 8.8555 13.836 20.871 13.836 33.398zm236.16 78.719v125.95c-0.011718 9.7656-3.043 19.289-8.6797 27.262s-13.605 14.008-22.809 17.277v49.926c0 4.1719-1.6602 8.1758-4.6094 11.129-2.9531 2.9531-6.957 4.6094-11.133 4.6094-4.1758 0-8.1797-1.6562-11.133-4.6094l-58.363-58.363h-119.43c-12.527 0-24.539-4.9766-33.398-13.832-8.8555-8.8594-13.832-20.871-13.832-33.398v-125.95c0-12.527 4.9766-24.539 13.832-33.398 8.8594-8.8594 20.871-13.832 33.398-13.832h188.93c12.527 0 24.539 4.9727 33.398 13.832 8.8555 8.8594 13.832 20.871 13.832 33.398zm-188.61 62.977c0-4.1758-1.6562-8.1797-4.6094-11.133s-6.957-4.6133-11.133-4.6133h-0.16016c-4.1641 0.042969-8.1445 1.7344-11.066 4.707-2.9219 2.9688-4.5469 6.9766-4.5195 11.141 0.027344 4.168 1.707 8.1523 4.668 11.086 2.9609 2.9297 6.9609 4.5703 11.129 4.5547 4.168-0.011719 8.1562-1.6797 11.098-4.6289 2.9414-2.9492 4.5938-6.9492 4.5938-11.113zm62.977 0c0-4.1758-1.6602-8.1797-4.6094-11.133-2.9531-2.9531-6.957-4.6133-11.133-4.6133h-0.16016c-4.1641 0.042969-8.1445 1.7344-11.066 4.707-2.9219 2.9688-4.5469 6.9766-4.5195 11.141 0.027344 4.168 1.707 8.1523 4.668 11.086 2.9609 2.9297 6.9609 4.5703 11.129 4.5547 4.168-0.011719 8.1562-1.6797 11.098-4.6289s4.5938-6.9492 4.5938-11.113zm62.977 0c0-4.1758-1.6602-8.1797-4.6133-11.133-2.9492-2.9531-6.957-4.6133-11.129-4.6133h-0.16016c-4.1641 0.042969-8.1445 1.7344-11.066 4.707-2.9219 2.9688-4.5469 6.9766-4.5195 11.141 0.027344 4.168 1.707 8.1523 4.668 11.086 2.9609 2.9297 6.9609 4.5703 11.129 4.5547 4.1641-0.011719 8.1562-1.6797 11.098-4.6289s4.5938-6.9492 4.5938-11.113z"></path>

      </g>
      </svg>