<svg id="svg" fill="#ffffff" stroke="#ffffff" width="203" height="203" version="1.1" viewBox="143 143 514 514" xmlns="http://www.w3.org/2000/svg" stroke-width="0">
    <g id="IconSvg_bgCarrier" stroke-width="0"></g>
    <g id="IconSvg_tracerCarrier" stroke-linecap="round" stroke-linejoin="round" stroke="#CCCCCC" stroke-width="0">
      <path xmlns="http://www.w3.org/2000/svg" d="m400 179.58c-58.461 0-114.52 23.223-155.86 64.559s-64.559 97.398-64.559 155.86c0 58.457 23.223 114.52 64.559 155.86 41.336 41.336 97.398 64.559 155.86 64.559 58.457 0 114.52-23.223 155.86-64.559 41.336-41.336 64.559-97.398 64.559-155.86 0-38.691-10.184-76.703-29.527-110.21-19.348-33.508-47.172-61.332-80.68-80.676-33.508-19.348-71.516-29.531-110.21-29.531zm113.52 311.57h-0.003906c2.9805 2.957 4.6602 6.9805 4.6602 11.18 0 4.1953-1.6797 8.2227-4.6602 11.176-2.9531 2.9805-6.9805 4.6602-11.176 4.6602-4.1992 0-8.2227-1.6797-11.18-4.6602l-91.156-91.312-91.156 91.316-0.003906-0.003906c-2.957 2.9805-6.9805 4.6602-11.176 4.6602-4.1992 0-8.2227-1.6797-11.18-4.6602-2.9805-2.9531-4.6562-6.9805-4.6562-11.176 0-4.1992 1.6758-8.2227 4.6562-11.18l91.316-91.156-91.316-91.156v-0.003906c-3.9922-3.9922-5.5547-9.8125-4.0938-15.27 1.4648-5.4531 5.7266-9.7148 11.18-11.18 5.457-1.4609 11.277 0.10156 15.27 4.0938l91.16 91.316 91.156-91.316c3.9922-3.9922 9.8164-5.5547 15.27-4.0938 5.457 1.4648 9.7188 5.7266 11.18 11.18 1.4609 5.457-0.097657 11.277-4.0938 15.27l-91.312 91.16z"></path>

      </g>
     <g id="IconSvg_iconCarrier">
      <path xmlns="http://www.w3.org/2000/svg" d="m400 179.58c-58.461 0-114.52 23.223-155.86 64.559s-64.559 97.398-64.559 155.86c0 58.457 23.223 114.52 64.559 155.86 41.336 41.336 97.398 64.559 155.86 64.559 58.457 0 114.52-23.223 155.86-64.559 41.336-41.336 64.559-97.398 64.559-155.86 0-38.691-10.184-76.703-29.527-110.21-19.348-33.508-47.172-61.332-80.68-80.676-33.508-19.348-71.516-29.531-110.21-29.531zm113.52 311.57h-0.003906c2.9805 2.957 4.6602 6.9805 4.6602 11.18 0 4.1953-1.6797 8.2227-4.6602 11.176-2.9531 2.9805-6.9805 4.6602-11.176 4.6602-4.1992 0-8.2227-1.6797-11.18-4.6602l-91.156-91.312-91.156 91.316-0.003906-0.003906c-2.957 2.9805-6.9805 4.6602-11.176 4.6602-4.1992 0-8.2227-1.6797-11.18-4.6602-2.9805-2.9531-4.6562-6.9805-4.6562-11.176 0-4.1992 1.6758-8.2227 4.6562-11.18l91.316-91.156-91.316-91.156v-0.003906c-3.9922-3.9922-5.5547-9.8125-4.0938-15.27 1.4648-5.4531 5.7266-9.7148 11.18-11.18 5.457-1.4609 11.277 0.10156 15.27 4.0938l91.16 91.316 91.156-91.316c3.9922-3.9922 9.8164-5.5547 15.27-4.0938 5.457 1.4648 9.7188 5.7266 11.18 11.18 1.4609 5.457-0.097657 11.277-4.0938 15.27l-91.312 91.16z"></path>

      </g>
      </svg>