<?xml version="1.0" encoding="UTF-8"?>
<!DOCTYPE svg PUBLIC "-//W3C//DTD SVG 1.1//EN" "http://www.w3.org/Graphics/SVG/1.1/DTD/svg11.dtd">
<svg xmlns="http://www.w3.org/2000/svg" version="1.1" width="75px" height="75px" style="shape-rendering:geometricPrecision; text-rendering:geometricPrecision; image-rendering:optimizeQuality; fill-rule:evenodd; clip-rule:evenodd" xmlns:xlink="http://www.w3.org/1999/xlink">
<g><path style="opacity:0.879" fill="#fefffe" d="M -0.5,40.5 C -0.5,38.1667 -0.5,35.8333 -0.5,33.5C 3.35472,34.1546 6.18806,32.8212 8,29.5C 8.08266,23.0582 8.74932,16.7248 10,10.5C 13.5828,8.70975 17.4161,8.04308 21.5,8.5C 21.5,10.8333 21.5,13.1667 21.5,15.5C 19.5,15.5 17.5,15.5 15.5,15.5C 15.6662,21.5092 15.4995,27.5092 15,33.5C 14.5,35.3333 13.3333,36.5 11.5,37C 13.3333,37.5 14.5,38.6667 15,40.5C 15.4995,46.4908 15.6662,52.4908 15.5,58.5C 17.5,58.5 19.5,58.5 21.5,58.5C 21.5,60.8333 21.5,63.1667 21.5,65.5C 16.9594,66.2308 12.9594,65.2308 9.5,62.5C 8.70823,56.551 8.20823,50.551 8,44.5C 6.18806,41.1788 3.35472,39.8454 -0.5,40.5 Z"/></g>
<g><path style="opacity:0.881" fill="#fefffe" d="M 74.5,33.5 C 74.5,35.8333 74.5,38.1667 74.5,40.5C 70.6453,39.8454 67.8119,41.1788 66,44.5C 65.9173,50.9418 65.2507,57.2752 64,63.5C 60.4172,65.2902 56.5839,65.9569 52.5,65.5C 52.5,63.1667 52.5,60.8333 52.5,58.5C 54.5,58.5 56.5,58.5 58.5,58.5C 58.3338,52.4908 58.5005,46.4908 59,40.5C 59.5,38.6667 60.6667,37.5 62.5,37C 60.6667,36.5 59.5,35.3333 59,33.5C 58.5005,27.5092 58.3338,21.5092 58.5,15.5C 56.5,15.5 54.5,15.5 52.5,15.5C 52.5,13.1667 52.5,10.8333 52.5,8.5C 56.5839,8.04308 60.4172,8.70975 64,10.5C 65.2507,16.7248 65.9173,23.0582 66,29.5C 67.8119,32.8212 70.6453,34.1546 74.5,33.5 Z"/></g>
<g><path style="opacity:0.68" fill="#fefffe" d="M 23.5,45.5 C 29.532,47.5435 29.8653,50.2102 24.5,53.5C 19.6907,51.2575 19.3574,48.5908 23.5,45.5 Z"/></g>
<g><path style="opacity:0.748" fill="#fefffe" d="M 36.5,45.5 C 41.5861,47.8476 41.7528,50.5142 37,53.5C 32.5358,51.008 32.3691,48.3414 36.5,45.5 Z"/></g>
<g><path style="opacity:0.68" fill="#fefffe" d="M 48.5,45.5 C 54.532,47.5435 54.8653,50.2102 49.5,53.5C 44.6907,51.2575 44.3574,48.5908 48.5,45.5 Z"/></g>
</svg>
