<svg id="svg" fill="#ffffff" stroke="#ffffff" width="259" height="259" version="1.1" viewBox="139 139 522 522" xmlns="http://www.w3.org/2000/svg" stroke-width="12">
    <g id="IconSvg_bgCarrier" stroke-width="0"></g>
    <g id="IconSvg_tracerCarrier" stroke-linecap="round" stroke-linejoin="round" stroke="#b8b8b8" stroke-width="20">
      <path xmlns="http://www.w3.org/2000/svg" d="m525.95 620.41h-251.9c-12.527 0-24.543-4.9766-33.398-13.832-8.8594-8.8594-13.836-20.871-13.836-33.398v-346.37c0-12.523 4.9766-24.539 13.836-33.398 8.8555-8.8555 20.871-13.832 33.398-13.832h158.86c12.5-0.03125 24.504 4.8945 33.379 13.695l93.047 92.574v0.003907c8.8594 8.8477 13.844 20.855 13.855 33.375v253.95c0 12.527-4.9766 24.539-13.836 33.398-8.8555 8.8555-20.871 13.832-33.398 13.832zm-251.9-409.34c-4.1758 0-8.1797 1.6602-11.133 4.6094-2.9531 2.9531-4.6133 6.957-4.6133 11.133v346.37c0 4.1758 1.6602 8.1797 4.6133 11.133 2.9531 2.9531 6.957 4.6094 11.133 4.6094h251.9c4.1758 0 8.1836-1.6562 11.133-4.6094 2.9531-2.9531 4.6133-6.957 4.6133-11.133v-253.95c0.023438-4.1836-1.6172-8.207-4.5664-11.176l-93.047-92.418c-2.9727-2.9492-6.9922-4.5898-11.18-4.5664zm173.18 94.465c-4.1758 0-8.1797 1.6562-11.133 4.6094s-4.6094 6.957-4.6094 11.133v9.2891l-69.434 69.434h-9.2891c0-5.625-3-10.824-7.8711-13.637-4.8711-2.8125-10.871-2.8125-15.746 0-4.8711 2.8125-7.8711 8.0117-7.8711 13.637v31.488c0 5.625 3 10.82 7.8711 13.633 4.875 2.8125 10.875 2.8125 15.746 0 4.8711-2.8125 7.8711-8.0078 7.8711-13.633h9.2891l69.434 69.43v9.2891c0 5.625 3 10.82 7.8711 13.633s10.871 2.8125 15.742 0c4.8711-2.8125 7.875-8.0078 7.875-13.633v-31.488c0-4.1758-1.6602-8.1797-4.6133-11.133-2.9531-2.9531-6.957-4.6094-11.133-4.6094-2.543 0.085938-5.0273 0.78906-7.2422 2.043l-49.277-49.277 49.277-49.277c2.2148 1.2578 4.6992 1.957 7.2422 2.0469 4.1758 0 8.1797-1.6602 11.133-4.6133 2.9531-2.9531 4.6133-6.957 4.6133-11.133v-31.488c0-4.1758-1.6602-8.1797-4.6133-11.133s-6.957-4.6094-11.133-4.6094z"></path>

      </g>
     <g id="IconSvg_iconCarrier">
      <path xmlns="http://www.w3.org/2000/svg" d="m525.95 620.41h-251.9c-12.527 0-24.543-4.9766-33.398-13.832-8.8594-8.8594-13.836-20.871-13.836-33.398v-346.37c0-12.523 4.9766-24.539 13.836-33.398 8.8555-8.8555 20.871-13.832 33.398-13.832h158.86c12.5-0.03125 24.504 4.8945 33.379 13.695l93.047 92.574v0.003907c8.8594 8.8477 13.844 20.855 13.855 33.375v253.95c0 12.527-4.9766 24.539-13.836 33.398-8.8555 8.8555-20.871 13.832-33.398 13.832zm-251.9-409.34c-4.1758 0-8.1797 1.6602-11.133 4.6094-2.9531 2.9531-4.6133 6.957-4.6133 11.133v346.37c0 4.1758 1.6602 8.1797 4.6133 11.133 2.9531 2.9531 6.957 4.6094 11.133 4.6094h251.9c4.1758 0 8.1836-1.6562 11.133-4.6094 2.9531-2.9531 4.6133-6.957 4.6133-11.133v-253.95c0.023438-4.1836-1.6172-8.207-4.5664-11.176l-93.047-92.418c-2.9727-2.9492-6.9922-4.5898-11.18-4.5664zm173.18 94.465c-4.1758 0-8.1797 1.6562-11.133 4.6094s-4.6094 6.957-4.6094 11.133v9.2891l-69.434 69.434h-9.2891c0-5.625-3-10.824-7.8711-13.637-4.8711-2.8125-10.871-2.8125-15.746 0-4.8711 2.8125-7.8711 8.0117-7.8711 13.637v31.488c0 5.625 3 10.82 7.8711 13.633 4.875 2.8125 10.875 2.8125 15.746 0 4.8711-2.8125 7.8711-8.0078 7.8711-13.633h9.2891l69.434 69.43v9.2891c0 5.625 3 10.82 7.8711 13.633s10.871 2.8125 15.742 0c4.8711-2.8125 7.875-8.0078 7.875-13.633v-31.488c0-4.1758-1.6602-8.1797-4.6133-11.133-2.9531-2.9531-6.957-4.6094-11.133-4.6094-2.543 0.085938-5.0273 0.78906-7.2422 2.043l-49.277-49.277 49.277-49.277c2.2148 1.2578 4.6992 1.957 7.2422 2.0469 4.1758 0 8.1797-1.6602 11.133-4.6133 2.9531-2.9531 4.6133-6.957 4.6133-11.133v-31.488c0-4.1758-1.6602-8.1797-4.6133-11.133s-6.957-4.6094-11.133-4.6094z"></path>

      </g>
      </svg>