<?xml version="1.0" encoding="UTF-8"?>
<!DOCTYPE svg PUBLIC "-//W3C//DTD SVG 1.1//EN" "http://www.w3.org/Graphics/SVG/1.1/DTD/svg11.dtd">
<svg xmlns="http://www.w3.org/2000/svg" version="1.1" width="2186px" height="2186px" style="shape-rendering:geometricPrecision; text-rendering:geometricPrecision; image-rendering:optimizeQuality; fill-rule:evenodd; clip-rule:evenodd" xmlns:xlink="http://www.w3.org/1999/xlink">
<g><path style="opacity:0.993" fill="#fefffe" d="M 729.5,-0.5 C 1010.5,-0.5 1291.5,-0.5 1572.5,-0.5C 1574.42,2.60321 1576.59,5.60321 1579,8.5C 1735.67,187.833 1892.33,367.167 2049,546.5C 2049.67,915.167 2049.67,1283.83 2049,1652.5C 2043.52,1716.1 2019.52,1771.43 1977,1818.5C 1928.08,1872.54 1867.25,1903.71 1794.5,1912C 1765.5,1912.5 1736.5,1912.67 1707.5,1912.5C 1706.12,1973.49 1686.62,2027.83 1649,2075.5C 1599.43,2138.21 1534.93,2174.88 1455.5,2185.5C 1099.5,2185.5 743.5,2185.5 387.5,2185.5C 311.651,2175.33 249.151,2140.99 200,2082.5C 162.086,2037.13 140.753,1984.8 136,1925.5C 135.333,1461.17 135.333,996.833 136,532.5C 144.679,437.603 188.512,364.103 267.5,312C 301.229,291.09 337.895,278.757 377.5,275C 410.825,273.785 444.158,272.951 477.5,272.5C 478.881,211.515 498.381,157.181 536,109.5C 585.571,46.792 650.071,10.1253 729.5,-0.5 Z M 742.5,136.5 C 972.833,136.5 1203.17,136.5 1433.5,136.5C 1433.33,232.834 1433.5,329.167 1434,425.5C 1441.21,500.42 1472.71,562.92 1528.5,613C 1577.52,656.159 1634.86,679.493 1700.5,683C 1770.83,683.5 1841.17,683.667 1911.5,683.5C 1911.67,1006.17 1911.5,1328.83 1911,1651.5C 1902.22,1702.6 1874.72,1739.76 1828.5,1763C 1813.29,1770.14 1797.29,1774.14 1780.5,1775C 1435.83,1775.67 1091.17,1775.67 746.5,1775C 696.043,1769.53 657.877,1745.03 632,1701.5C 622.307,1684.06 616.641,1665.4 615,1645.5C 614.333,1185.83 614.333,726.167 615,266.5C 621.75,214.759 647.916,176.259 693.5,151C 709.142,143.393 725.476,138.559 742.5,136.5 Z M 1571.5,140.5 C 1684.64,275.143 1797.64,409.976 1910.5,545C 1840.17,545.667 1769.83,545.667 1699.5,545C 1682.48,541.654 1667.48,534.321 1654.5,523C 1622.63,491.786 1599.46,454.952 1585,412.5C 1578.63,394.647 1574.3,376.314 1572,357.5C 1571.5,285.167 1571.33,212.834 1571.5,140.5 Z M 473.5,409.5 C 474.833,409.5 476.167,409.5 477.5,409.5C 477.333,825.833 477.5,1242.17 478,1658.5C 486.977,1732.96 519.477,1794.8 575.5,1844C 617.606,1880.95 666.606,1903.28 722.5,1911C 1005.15,1912.49 1287.82,1912.99 1570.5,1912.5C 1565.4,1966.88 1539.07,2007.38 1491.5,2034C 1476.05,2041.71 1459.71,2046.37 1442.5,2048C 1095.17,2048.67 747.833,2048.67 400.5,2048C 341.972,2038.81 301.805,2006.64 280,1951.5C 277.21,1942.67 275.21,1933.67 274,1924.5C 273.333,1460.5 273.333,996.5 274,532.5C 280.17,489.707 301.003,456.207 336.5,432C 352.437,421.909 369.771,415.576 388.5,413C 416.993,411.84 445.327,410.674 473.5,409.5 Z"/></g>
<g><path style="opacity:0.988" fill="#fefffe" d="M 948.5,956.5 C 1158.5,956.333 1368.5,956.5 1578.5,957C 1608.07,961.571 1627.57,978.071 1637,1006.5C 1644.34,1039.96 1633.84,1066.13 1605.5,1085C 1595.54,1090.49 1584.87,1093.49 1573.5,1094C 1363.48,1094.99 1153.48,1094.66 943.5,1093C 907.978,1084.15 889.312,1061.48 887.5,1025C 890.057,986.279 910.391,963.445 948.5,956.5 Z"/></g>
<g><path style="opacity:0.988" fill="#fefffe" d="M 951.5,1297.5 C 1159.5,1297.33 1367.5,1297.5 1575.5,1298C 1611.3,1302.8 1632.47,1322.97 1639,1358.5C 1641.03,1391.62 1627.19,1415.45 1597.5,1430C 1591.08,1432.61 1584.41,1434.27 1577.5,1435C 1368.17,1435.67 1158.83,1435.67 949.5,1435C 910.59,1428.68 889.924,1405.85 887.5,1366.5C 890.423,1326.26 911.757,1303.26 951.5,1297.5 Z"/></g>
</svg>
