<?xml version="1.0" encoding="UTF-8"?>
<!DOCTYPE svg PUBLIC "-//W3C//DTD SVG 1.1//EN" "http://www.w3.org/Graphics/SVG/1.1/DTD/svg11.dtd">
<svg xmlns="http://www.w3.org/2000/svg" version="1.1" width="400px" height="400px" style="shape-rendering:geometricPrecision; text-rendering:geometricPrecision; image-rendering:optimizeQuality; fill-rule:evenodd; clip-rule:evenodd" xmlns:xlink="http://www.w3.org/1999/xlink">
<g><path style="opacity:0.989" fill="#fefffe" d="M 39.5,-0.5 C 121.167,-0.5 202.833,-0.5 284.5,-0.5C 305.485,4.98567 318.652,18.319 324,39.5C 324.667,97.5 324.667,155.5 324,213.5C 311.866,223.42 304.033,236.086 300.5,251.5C 299.667,184.169 299.167,116.836 299,49.5C 297.5,34.6667 289.333,26.5 274.5,25C 199.5,24.3333 124.5,24.3333 49.5,25C 34.6667,26.5 26.5,34.6667 25,49.5C 24.0209,126.86 24.3542,204.193 26,281.5C 28.8333,289.667 34.3333,295.167 42.5,298C 80.1376,299.289 117.804,299.956 155.5,300C 163.324,303.745 170.991,307.745 178.5,312C 170.991,316.255 163.324,320.255 155.5,324C 116.833,324.667 78.1667,324.667 39.5,324C 18.319,318.652 4.98567,305.485 -0.5,284.5C -0.5,202.833 -0.5,121.167 -0.5,39.5C 5.16667,18.5 18.5,5.16667 39.5,-0.5 Z"/></g>
<g><path style="opacity:1" fill="#fefffe" d="M 74.5,74.5 C 132.833,74.5 191.167,74.5 249.5,74.5C 249.5,82.8333 249.5,91.1667 249.5,99.5C 191.167,99.5 132.833,99.5 74.5,99.5C 74.5,91.1667 74.5,82.8333 74.5,74.5 Z"/></g>
<g><path style="opacity:1" fill="#fefffe" d="M 74.5,124.5 C 132.833,124.5 191.167,124.5 249.5,124.5C 249.5,132.833 249.5,141.167 249.5,149.5C 191.167,149.5 132.833,149.5 74.5,149.5C 74.5,141.167 74.5,132.833 74.5,124.5 Z"/></g>
<g><path style="opacity:1" fill="#fefffe" d="M 74.5,174.5 C 132.833,174.5 191.167,174.5 249.5,174.5C 249.5,182.833 249.5,191.167 249.5,199.5C 191.167,199.5 132.833,199.5 74.5,199.5C 74.5,191.167 74.5,182.833 74.5,174.5 Z"/></g>
<g><path style="opacity:1" fill="#fefffe" d="M 74.5,224.5 C 91.1667,224.5 107.833,224.5 124.5,224.5C 124.5,232.833 124.5,241.167 124.5,249.5C 107.833,249.5 91.1667,249.5 74.5,249.5C 74.5,241.167 74.5,232.833 74.5,224.5 Z"/></g>
<g><path style="opacity:0.956" fill="#fefffe" d="M 399.5,253.5 C 399.5,259.167 399.5,264.833 399.5,270.5C 388.99,297.742 369.99,305.908 342.5,295C 326.325,283.817 320.825,268.65 326,249.5C 334.331,229.747 349.164,221.581 370.5,225C 385.349,229.35 395.015,238.85 399.5,253.5 Z M 357.5,250.5 C 369.319,249.485 374.486,254.818 373,266.5C 369.677,272.908 364.511,275.075 357.5,273C 351.092,269.677 348.925,264.511 351,257.5C 352.694,254.642 354.861,252.309 357.5,250.5 Z"/></g>
<g><path style="opacity:0.947" fill="#fefffe" d="M 156.5,249.5 C 160.182,249.335 163.848,249.501 167.5,250C 199.078,265.705 230.578,281.539 262,297.5C 275.089,290.706 288.255,284.039 301.5,277.5C 304.716,285.599 308.716,293.265 313.5,300.5C 306.324,304.588 298.991,308.422 291.5,312C 298.991,315.578 306.324,319.412 313.5,323.5C 308.716,330.735 304.716,338.401 301.5,346.5C 288.255,339.961 275.089,333.294 262,326.5C 230.578,342.461 199.078,358.295 167.5,374C 153.667,376.167 147.833,370.333 150,356.5C 151.122,354.376 152.622,352.543 154.5,351C 180.5,338 206.5,325 232.5,312C 206.5,299 180.5,286 154.5,273C 149.283,267.704 148.116,261.537 151,254.5C 152.73,252.598 154.563,250.931 156.5,249.5 Z"/></g>
<g><path style="opacity:0.956" fill="#fefffe" d="M 399.5,353.5 C 399.5,359.167 399.5,364.833 399.5,370.5C 394.833,385.167 385.167,394.833 370.5,399.5C 364.833,399.5 359.167,399.5 353.5,399.5C 331.586,392.047 322.086,376.714 325,353.5C 332.146,331.376 347.313,321.876 370.5,325C 385.349,329.35 395.015,338.85 399.5,353.5 Z M 357.5,350.5 C 369.319,349.485 374.486,354.818 373,366.5C 369.677,372.908 364.511,375.075 357.5,373C 351.092,369.677 348.925,364.511 351,357.5C 352.694,354.642 354.861,352.309 357.5,350.5 Z"/></g>
</svg>
