<?xml version="1.0" encoding="UTF-8"?>
<!DOCTYPE svg PUBLIC "-//W3C//DTD SVG 1.1//EN" "http://www.w3.org/Graphics/SVG/1.1/DTD/svg11.dtd">
<svg xmlns="http://www.w3.org/2000/svg" version="1.1" width="284px" height="284px" style="shape-rendering:geometricPrecision; text-rendering:geometricPrecision; image-rendering:optimizeQuality; fill-rule:evenodd; clip-rule:evenodd" xmlns:xlink="http://www.w3.org/1999/xlink">
<g><path style="opacity:0.904" fill="#fefffe" d="M 122.5,59.5 C 136.837,59.3334 151.171,59.5001 165.5,60C 166.931,60.4652 168.097,61.2986 169,62.5C 169.5,69.1583 169.666,75.825 169.5,82.5C 182.171,82.3334 194.838,82.5001 207.5,83C 208.893,84.1711 209.727,85.6711 210,87.5C 210.667,96.5 210.667,105.5 210,114.5C 208.903,117.265 206.903,118.931 204,119.5C 203.667,150.5 203.333,181.5 203,212.5C 201.381,221.454 196.214,227.287 187.5,230C 154.167,230.667 120.833,230.667 87.5,230C 86.6667,229.167 85.8333,228.333 85,227.5C 84.6667,191.5 84.3333,155.5 84,119.5C 82.6012,118.773 81.1012,118.273 79.5,118C 78.8742,117.25 78.3742,116.416 78,115.5C 77.3333,105.833 77.3333,96.1667 78,86.5C 78.4652,85.0692 79.2986,83.9025 80.5,83C 93.1623,82.5001 105.829,82.3334 118.5,82.5C 118.334,75.825 118.5,69.1583 119,62.5C 120.145,61.3636 121.312,60.3636 122.5,59.5 Z M 129.5,71.5 C 138.833,71.5 148.167,71.5 157.5,71.5C 157.5,75.1667 157.5,78.8333 157.5,82.5C 148.167,82.5 138.833,82.5 129.5,82.5C 129.5,78.8333 129.5,75.1667 129.5,71.5 Z M 89.5,93.5 C 125.833,93.5 162.167,93.5 198.5,93.5C 198.5,98.1667 198.5,102.833 198.5,107.5C 162.167,107.5 125.833,107.5 89.5,107.5C 89.5,102.833 89.5,98.1667 89.5,93.5 Z M 96.5,119.5 C 128.167,119.5 159.833,119.5 191.5,119.5C 191.985,151.254 191.485,182.921 190,214.5C 188.786,216.049 187.286,217.215 185.5,218C 155.835,218.5 126.169,218.667 96.5,218.5C 96.5,185.5 96.5,152.5 96.5,119.5 Z"/></g>
<g><path style="opacity:0.875" fill="#fefffe" d="M 111.5,139.5 C 115.5,139.5 119.5,139.5 123.5,139.5C 123.5,160.5 123.5,181.5 123.5,202.5C 119.5,202.5 115.5,202.5 111.5,202.5C 111.5,181.5 111.5,160.5 111.5,139.5 Z"/></g>
<g><path style="opacity:0.955" fill="#fefffe" d="M 138.5,139.5 C 142.167,139.5 145.833,139.5 149.5,139.5C 149.5,160.5 149.5,181.5 149.5,202.5C 145.833,202.5 142.167,202.5 138.5,202.5C 138.5,181.5 138.5,160.5 138.5,139.5 Z"/></g>
<g><path style="opacity:0.875" fill="#fefffe" d="M 164.5,139.5 C 168.5,139.5 172.5,139.5 176.5,139.5C 176.5,160.5 176.5,181.5 176.5,202.5C 172.5,202.5 168.5,202.5 164.5,202.5C 164.5,181.5 164.5,160.5 164.5,139.5 Z"/></g>
</svg>
