<?xml version="1.0" encoding="UTF-8"?>
<!DOCTYPE svg PUBLIC "-//W3C//DTD SVG 1.1//EN" "http://www.w3.org/Graphics/SVG/1.1/DTD/svg11.dtd">
<svg xmlns="http://www.w3.org/2000/svg" version="1.1" width="113px" height="113px" style="shape-rendering:geometricPrecision; text-rendering:geometricPrecision; image-rendering:optimizeQuality; fill-rule:evenodd; clip-rule:evenodd" xmlns:xlink="http://www.w3.org/1999/xlink">
<g><path style="opacity:0.891" fill="#fefffe" d="M 16.5,14.5 C 24.5069,14.3336 32.5069,14.5003 40.5,15C 44.8471,18.3483 48.5137,22.3483 51.5,27C 67.2588,27.0304 82.9255,27.697 98.5,29C 99.1258,29.7504 99.6258,30.5838 100,31.5C 100.667,52.1667 100.667,72.8333 100,93.5C 98.786,95.0488 97.286,96.2155 95.5,97C 68.4132,97.982 41.4132,97.6487 14.5,96C 13.6667,95.1667 12.8333,94.3333 12,93.5C 11.3333,68.5 11.3333,43.5 12,18.5C 13.3968,16.9297 14.8968,15.5964 16.5,14.5 Z M 18.5,21.5 C 25.175,21.3337 31.8417,21.5004 38.5,22C 40.7798,25.9467 43.4465,29.6134 46.5,33C 37.1726,33.4998 27.8393,33.6665 18.5,33.5C 18.5,29.5 18.5,25.5 18.5,21.5 Z M 47.5,34.5 C 62.8333,34.5 78.1667,34.5 93.5,34.5C 93.5,53.1667 93.5,71.8333 93.5,90.5C 68.5,90.5 43.5,90.5 18.5,90.5C 18.5,73.8333 18.5,57.1667 18.5,40.5C 27.1731,40.6664 35.8397,40.4998 44.5,40C 46.6709,38.8261 47.6709,36.9928 47.5,34.5 Z"/></g>
</svg>
