<?xml version="1.0" encoding="UTF-8"?>
<!DOCTYPE svg PUBLIC "-//W3C//DTD SVG 1.1//EN" "http://www.w3.org/Graphics/SVG/1.1/DTD/svg11.dtd">
<svg xmlns="http://www.w3.org/2000/svg" version="1.1" width="200px" height="200px" style="shape-rendering:geometricPrecision; text-rendering:geometricPrecision; image-rendering:optimizeQuality; fill-rule:evenodd; clip-rule:evenodd" xmlns:xlink="http://www.w3.org/1999/xlink">
<g><path style="opacity:0.948" fill="#fefefe" d="M 87.5,25.5 C 126.091,22.1998 153.591,37.8664 170,72.5C 181.788,109.794 172.288,140.294 141.5,164C 134.927,168.962 127.594,171.628 119.5,172C 119,171.5 118.5,171 118,170.5C 117.667,160.833 117.333,151.167 117,141.5C 116.394,138.452 114.894,135.952 112.5,134C 138.443,130.381 149.61,115.547 146,89.5C 144.104,84.7082 141.937,80.0415 139.5,75.5C 140.939,69.7772 140.773,64.1106 139,58.5C 136.936,57.4086 134.769,57.2419 132.5,58C 127.449,60.1957 122.449,62.3624 117.5,64.5C 105.5,61.8333 93.5,61.8333 81.5,64.5C 76.551,62.3624 71.551,60.1957 66.5,58C 64.4213,57.1923 62.4213,57.359 60.5,58.5C 59.0898,61.5005 58.4231,64.6672 58.5,68C 58.9729,71.5188 59.1395,75.0188 59,78.5C 55.9405,81.9524 53.9405,85.9524 53,90.5C 49.8788,116.042 61.0455,130.542 86.5,134C 83.9774,137.378 81.9774,141.045 80.5,145C 74.1005,147.449 68.1005,146.783 62.5,143C 60.0736,139.484 57.407,136.151 54.5,133C 43.7745,129.315 42.9411,130.815 52,137.5C 54.4146,143.43 57.9146,148.597 62.5,153C 68.6053,155.248 74.9386,156.081 81.5,155.5C 81.6659,160.511 81.4993,165.511 81,170.5C 80.044,171.894 78.7106,172.561 77,172.5C 52.8772,165.046 36.5438,149.379 28,125.5C 17.1829,82.9823 31.0163,51.4823 69.5,31C 75.5308,28.8324 81.5308,26.999 87.5,25.5 Z"/></g>
</svg>
