<svg id="svg" fill="#ffffff" stroke="#ffffff" width="246" height="246" version="1.1" viewBox="141 141 518 518" xmlns="http://www.w3.org/2000/svg" stroke-width="17">
    <g id="IconSvg_bgCarrier" stroke-width="0"></g>
    <g id="IconSvg_tracerCarrier" stroke-linecap="round" stroke-linejoin="round" stroke="#CCCCCC" stroke-width="26">
      <path xmlns="http://www.w3.org/2000/svg" d="m606.56 516.5c2.1797 5.1875 3.3203 10.75 3.3594 16.375-0.03125 7.9219-1.8242 15.738-5.2461 22.879-3.668 7.8086-8.4766 15.027-14.273 21.414-9.457 10.754-21.227 19.223-34.43 24.77-13.051 5.3594-27.035 8.0703-41.145 7.9766-23.609-0.43359-46.891-5.6484-68.434-15.324-25.633-11.078-49.926-25.02-72.422-41.562-12.176-9.0273-24.141-18.262-35.688-28.34l68.434-68.434c0.21094 0 0.21094 0 0.41797 0.21094h0.003907c8.3359 7.3516 17.41 13.824 27.078 19.312 1.0508 0.41797 2.3086 1.0508 3.7773 1.6797h0.003906c1.6797 0.59766 3.4609 0.88281 5.2461 0.83984 3.2422 0.070313 6.3672-1.2266 8.6055-3.5703l15.953-15.742 0.003907-0.003906c4.4219-4.6484 9.5156-8.6094 15.113-11.754 4.4492-2.8477 9.6172-4.3789 14.902-4.4062 4.4062 0.054687 8.7578 0.98438 12.805 2.7266 5.168 2.2148 10.094 4.957 14.695 8.1875l69.695 49.332c5.0391 3.2969 9.043 7.9531 11.543 13.434zm-1.3711-321.7c-3.0273-3.0273-7.1328-4.7305-11.418-4.7305-4.2812 0-8.3867 1.7031-11.414 4.7305l-219.5 219.5c-6.8555-7.3359-13.5-14.652-19.742-21.867h-0.003906c-7.3477-8.3125-13.883-17.312-19.52-26.871-0.41797-1.2578-1.0508-2.5195-1.6797-4.1992v0.003906c-0.41797-1.5781-0.62891-3.1992-0.63281-4.8281-0.10547-3.1484 1.1133-6.1953 3.3594-8.3984l15.953-16.582c4.5664-4.4258 8.5195-9.4375 11.758-14.906 2.8203-4.4648 4.3477-9.625 4.4062-14.902-0.11328-4.4219-1.1133-8.7773-2.9375-12.809-2.2109-5.2109-5.0273-10.145-8.3984-14.691l-48.699-68.645c-0.41797-0.41797-0.62891-0.83984-1.0508-1.2578v-0.003907c-3.3594-4.5625-7.8438-8.1758-13.016-10.496-5.3164-2.5078-11.125-3.8008-17.004-3.7773-12.031 0.019531-23.738 3.9219-33.375 11.125h-0.21094c-3.7227 2.5-7.168 5.3867-10.285 8.6055-1.7891 1.6445-3.4727 3.3984-5.0391 5.25-8.2539 8.5938-14.742 18.723-19.102 29.809-5.082 12.898-7.6484 26.652-7.5586 40.516 0.39453 23.66 5.5312 47.004 15.113 68.645 0.21094 0.41797 0.21094 0.62891 0.41797 1.0508l0.003906-0.003906c10.98 24.918 24.633 48.566 40.723 70.535 14.883 19.977 30.957 39.039 48.133 57.086l-99.66 99.66c-4.0781 4.0781-5.6719 10.023-4.1797 15.594 1.4961 5.5703 5.8477 9.9258 11.418 11.418 5.5703 1.4922 11.516-0.10156 15.594-4.1797l387.55-387.54c3.0312-3.0273 4.7305-7.1367 4.7305-11.418 0-4.2852-1.6992-8.3906-4.7305-11.418z"></path>

      </g>
     <g id="IconSvg_iconCarrier">
      <path xmlns="http://www.w3.org/2000/svg" d="m606.56 516.5c2.1797 5.1875 3.3203 10.75 3.3594 16.375-0.03125 7.9219-1.8242 15.738-5.2461 22.879-3.668 7.8086-8.4766 15.027-14.273 21.414-9.457 10.754-21.227 19.223-34.43 24.77-13.051 5.3594-27.035 8.0703-41.145 7.9766-23.609-0.43359-46.891-5.6484-68.434-15.324-25.633-11.078-49.926-25.02-72.422-41.562-12.176-9.0273-24.141-18.262-35.688-28.34l68.434-68.434c0.21094 0 0.21094 0 0.41797 0.21094h0.003907c8.3359 7.3516 17.41 13.824 27.078 19.312 1.0508 0.41797 2.3086 1.0508 3.7773 1.6797h0.003906c1.6797 0.59766 3.4609 0.88281 5.2461 0.83984 3.2422 0.070313 6.3672-1.2266 8.6055-3.5703l15.953-15.742 0.003907-0.003906c4.4219-4.6484 9.5156-8.6094 15.113-11.754 4.4492-2.8477 9.6172-4.3789 14.902-4.4062 4.4062 0.054687 8.7578 0.98438 12.805 2.7266 5.168 2.2148 10.094 4.957 14.695 8.1875l69.695 49.332c5.0391 3.2969 9.043 7.9531 11.543 13.434zm-1.3711-321.7c-3.0273-3.0273-7.1328-4.7305-11.418-4.7305-4.2812 0-8.3867 1.7031-11.414 4.7305l-219.5 219.5c-6.8555-7.3359-13.5-14.652-19.742-21.867h-0.003906c-7.3477-8.3125-13.883-17.312-19.52-26.871-0.41797-1.2578-1.0508-2.5195-1.6797-4.1992v0.003906c-0.41797-1.5781-0.62891-3.1992-0.63281-4.8281-0.10547-3.1484 1.1133-6.1953 3.3594-8.3984l15.953-16.582c4.5664-4.4258 8.5195-9.4375 11.758-14.906 2.8203-4.4648 4.3477-9.625 4.4062-14.902-0.11328-4.4219-1.1133-8.7773-2.9375-12.809-2.2109-5.2109-5.0273-10.145-8.3984-14.691l-48.699-68.645c-0.41797-0.41797-0.62891-0.83984-1.0508-1.2578v-0.003907c-3.3594-4.5625-7.8438-8.1758-13.016-10.496-5.3164-2.5078-11.125-3.8008-17.004-3.7773-12.031 0.019531-23.738 3.9219-33.375 11.125h-0.21094c-3.7227 2.5-7.168 5.3867-10.285 8.6055-1.7891 1.6445-3.4727 3.3984-5.0391 5.25-8.2539 8.5938-14.742 18.723-19.102 29.809-5.082 12.898-7.6484 26.652-7.5586 40.516 0.39453 23.66 5.5312 47.004 15.113 68.645 0.21094 0.41797 0.21094 0.62891 0.41797 1.0508l0.003906-0.003906c10.98 24.918 24.633 48.566 40.723 70.535 14.883 19.977 30.957 39.039 48.133 57.086l-99.66 99.66c-4.0781 4.0781-5.6719 10.023-4.1797 15.594 1.4961 5.5703 5.8477 9.9258 11.418 11.418 5.5703 1.4922 11.516-0.10156 15.594-4.1797l387.55-387.54c3.0312-3.0273 4.7305-7.1367 4.7305-11.418 0-4.2852-1.6992-8.3906-4.7305-11.418z"></path>

      </g>
      </svg>