<?xml version="1.0" encoding="UTF-8"?>
<!DOCTYPE svg PUBLIC "-//W3C//DTD SVG 1.1//EN" "http://www.w3.org/Graphics/SVG/1.1/DTD/svg11.dtd">
<svg xmlns="http://www.w3.org/2000/svg" version="1.1" width="1448px" height="1448px" style="shape-rendering:geometricPrecision; text-rendering:geometricPrecision; image-rendering:optimizeQuality; fill-rule:evenodd; clip-rule:evenodd" xmlns:xlink="http://www.w3.org/1999/xlink">
<g><path style="opacity:0.993" fill="#fefffe" d="M 312.5,-0.5 C 522.833,-0.5 733.167,-0.5 943.5,-0.5C 950.444,1.4663 957.111,4.29963 963.5,8C 970.126,12.9575 976.46,18.2908 982.5,24C 1115.2,147.035 1248.2,269.701 1381.5,392C 1389.97,400.44 1395.14,410.606 1397,422.5C 1397.67,718.833 1397.67,1015.17 1397,1311.5C 1391.5,1335.67 1376.67,1350.5 1352.5,1356C 1178.83,1356.67 1005.17,1356.67 831.5,1356C 801.263,1347.69 786.43,1327.86 787,1296.5C 791.383,1268.45 807.549,1251.95 835.5,1247C 986.166,1246.5 1136.83,1246.33 1287.5,1246.5C 1287.67,1043.17 1287.5,839.833 1287,636.5C 1145.57,637.666 1004.07,637.832 862.5,637C 836.656,632.822 820.823,617.989 815,592.5C 814.5,431.5 814.333,270.5 814.5,109.5C 668.833,109.5 523.167,109.5 377.5,109.5C 377.667,291.834 377.5,474.167 377,656.5C 369.621,684.21 351.621,699.21 323,701.5C 292.067,699.23 273.734,682.897 268,652.5C 267.333,450.833 267.333,249.167 268,47.5C 272.372,21.6334 287.205,5.63338 312.5,-0.5 Z M 924.5,121.5 C 1045.46,232.627 1166.3,343.961 1287,455.5C 1287.5,479.498 1287.67,503.498 1287.5,527.5C 1166.5,527.5 1045.5,527.5 924.5,527.5C 924.5,392.167 924.5,256.833 924.5,121.5 Z"/></g>
<g><path style="opacity:0.992" fill="#fefffe" d="M 333.5,1447.5 C 326.5,1447.5 319.5,1447.5 312.5,1447.5C 289.774,1442.19 275.274,1428.19 269,1405.5C 267.522,1343.87 267.022,1282.2 267.5,1220.5C 211.166,1220.67 154.832,1220.5 98.5,1220C 74.3509,1216.18 58.5175,1202.68 51,1179.5C 45.3389,1146.31 58.1722,1123.81 89.5,1112C 148.796,1110.52 208.129,1110.02 267.5,1110.5C 267.022,1048.8 267.522,987.135 269,925.5C 276.582,898.419 294.415,884.085 322.5,882.5C 351.88,883.938 370.047,898.938 377,927.5C 377.5,988.499 377.667,1049.5 377.5,1110.5C 443.204,1110.02 508.87,1110.52 574.5,1112C 599.602,1120.77 612.935,1138.44 614.5,1165C 613.151,1193.35 598.818,1211.35 571.5,1219C 506.865,1220.48 442.198,1220.98 377.5,1220.5C 377.667,1281.17 377.5,1341.83 377,1402.5C 371.433,1426.23 356.933,1441.23 333.5,1447.5 Z"/></g>
</svg>
