<svg id="svg" fill="#ffffff" stroke="#ffffff" width="283" height="283" version="1.1" viewBox="133 133 534 534" xmlns="http://www.w3.org/2000/svg" stroke-width="7">
    <g id="IconSvg_bgCarrier" stroke-width="0"></g>
    <g id="IconSvg_tracerCarrier" stroke-linecap="round" stroke-linejoin="round" stroke="#CCCCCC" stroke-width="24">
      <g xmlns="http://www.w3.org/2000/svg">
  <path d="m400 601.62c-0.78906 0-1.5742-0.097656-2.3633-0.29688l-155.28-38.867c-4.3281-1.082-7.3789-4.9219-7.3789-9.4453v-111c0-5.3125 4.3281-9.7422 9.7422-9.7422 5.4102 0 9.7422 4.3281 9.7422 9.7422v103.42l135.89 33.949v-181.65c0-5.3125 4.3281-9.7422 9.7422-9.7422 5.3125 0 9.7422 4.3281 9.7422 9.7422v194.14c0 2.9531-1.3789 5.8047-3.7383 7.6758-1.8711 1.3789-3.9375 2.0664-6.1016 2.0664z"></path>
  <path d="m351.49 485.11c-0.98438 0-1.9688-0.097656-2.8555-0.49219l-155.38-48.508c-2.9531-0.88672-5.3125-3.2461-6.2969-6.1992-0.98438-2.9531-0.49219-6.1992 1.2773-8.7578l48.512-67.996c2.3633-3.2461 6.3945-4.7227 10.234-3.7383l155.38 38.867c3.0508 0.78906 5.5117 2.9531 6.6914 5.8047 1.1797 2.8555 0.88672 6.1016-0.78906 8.7578l-48.605 77.738c-1.7734 2.8516-4.9219 4.5234-8.168 4.5234zm-139.63-63.566 135.4 42.312 37.492-60.023-135.99-33.949z"></path>
  <path d="m400 601.62c-2.1641 0-4.2305-0.6875-6.0039-2.0664-2.3633-1.8711-3.7383-4.625-3.7383-7.6758v-194.14c0-5.3125 4.3281-9.7422 9.7422-9.7422 5.3125 0 9.7422 4.3281 9.7422 9.7422v181.75l135.89-34.047v-103.42c0-5.3125 4.3281-9.7422 9.7422-9.7422 5.4102 0 9.7422 4.3281 9.7422 9.7422v111c0 4.4297-3.0508 8.3633-7.3789 9.4453l-155.38 38.867c-0.78906 0.19922-1.5781 0.29688-2.3633 0.29688z"></path>
  <path d="m400 562.75c-0.78906 0-1.5742-0.097656-2.3633-0.29688l-155.28-38.77c-5.2148-1.2773-8.3633-6.5938-7.0859-11.809 1.2773-5.2148 6.5938-8.3633 11.809-7.0859l155.28 38.871c5.2148 1.2773 8.3633 6.5938 7.0859 11.809-1.1797 4.3281-5.1172 7.2812-9.4453 7.2812z"></path>
  <path d="m400 562.75c-4.3281 0-8.2656-2.9531-9.4453-7.3789-1.2773-5.2148 1.8711-10.43 7.0859-11.809l155.28-38.867c5.2148-1.2773 10.43 1.8711 11.809 7.0859 1.3789 5.2148-1.8711 10.43-7.0859 11.809l-155.38 38.867c-0.69141 0.19141-1.4805 0.29297-2.2656 0.29297z"></path>
  <path d="m448.51 485.11c-3.2461 0-6.3945-1.6719-8.2656-4.5273l-48.512-77.637c-1.6719-2.6562-1.9688-5.9023-0.78906-8.7578 1.1797-2.8555 3.6406-5.0195 6.6914-5.8047l155.28-38.867c3.8359-0.98438 7.9688 0.49219 10.234 3.7383l48.512 67.996c1.7695 2.5586 2.2617 5.8047 1.2773 8.7578s-3.3438 5.2148-6.2969 6.1992l-155.18 48.41c-0.98438 0.29688-1.9688 0.49219-2.9492 0.49219zm-33.164-81.18 37.492 60.023 135.4-42.312-36.898-51.66z"></path>
  <path d="m555.37 368.61c-0.78906 0-1.5742-0.097656-2.3633-0.29688l-153.01-38.277-153.01 38.277c-5.2148 1.2773-10.43-1.8711-11.809-7.0859-1.2773-5.2148 1.8711-10.43 7.0859-11.809l155.38-38.867c1.5742-0.39453 3.1484-0.39453 4.7227 0l155.38 38.867c5.2148 1.2773 8.3633 6.5938 7.0859 11.809-1.1875 4.4297-5.1211 7.3828-9.4531 7.3828z"></path>
  <path d="m477.64 387.7c-5.3125 0-9.7422-4.3281-9.7422-9.7422v-94.367c0-47.035 38.277-85.215 85.215-85.215 5.3125 0 9.7422 4.3281 9.7422 9.7422 0 5.4102-4.3281 9.7422-9.7422 9.7422-36.309 0-65.828 29.52-65.828 65.828v94.367c0.097656 5.3125-4.2344 9.6445-9.6445 9.6445z"></path>
  <path d="m322.36 388.19c-5.3125 0-9.7422-4.3281-9.7422-9.7422v-84.527c0-36.309-29.52-65.828-65.828-65.828-5.3125 0-9.7422-4.3281-9.7422-9.7422 0-5.3125 4.3281-9.7422 9.7422-9.7422 47.035 0 85.215 38.18 85.215 85.215v84.527c0 5.4102-4.3281 9.8398-9.6445 9.8398z"></path>
  <path d="m429.12 399.9c-5.3125 0-9.7422-4.3281-9.7422-9.7422v-113.45c0-5.3125 4.3281-9.7422 9.7422-9.7422 5.4102 0 9.7422 4.3281 9.7422 9.7422v113.46c0 5.4102-4.4297 9.7383-9.7422 9.7383z"></path>
  <path d="m380.61 402.56c-5.3125 0-9.7422-4.3281-9.7422-9.7422v-171.02c0-5.3125 4.3281-9.7422 9.7422-9.7422 5.3125 0 9.7422 4.3281 9.7422 9.7422v171.02c-0.097657 5.4102-4.4297 9.7422-9.7422 9.7422z"></path>
 </g>

      </g>
     <g id="IconSvg_iconCarrier">
      <g xmlns="http://www.w3.org/2000/svg">
  <path d="m400 601.62c-0.78906 0-1.5742-0.097656-2.3633-0.29688l-155.28-38.867c-4.3281-1.082-7.3789-4.9219-7.3789-9.4453v-111c0-5.3125 4.3281-9.7422 9.7422-9.7422 5.4102 0 9.7422 4.3281 9.7422 9.7422v103.42l135.89 33.949v-181.65c0-5.3125 4.3281-9.7422 9.7422-9.7422 5.3125 0 9.7422 4.3281 9.7422 9.7422v194.14c0 2.9531-1.3789 5.8047-3.7383 7.6758-1.8711 1.3789-3.9375 2.0664-6.1016 2.0664z"></path>
  <path d="m351.49 485.11c-0.98438 0-1.9688-0.097656-2.8555-0.49219l-155.38-48.508c-2.9531-0.88672-5.3125-3.2461-6.2969-6.1992-0.98438-2.9531-0.49219-6.1992 1.2773-8.7578l48.512-67.996c2.3633-3.2461 6.3945-4.7227 10.234-3.7383l155.38 38.867c3.0508 0.78906 5.5117 2.9531 6.6914 5.8047 1.1797 2.8555 0.88672 6.1016-0.78906 8.7578l-48.605 77.738c-1.7734 2.8516-4.9219 4.5234-8.168 4.5234zm-139.63-63.566 135.4 42.312 37.492-60.023-135.99-33.949z"></path>
  <path d="m400 601.62c-2.1641 0-4.2305-0.6875-6.0039-2.0664-2.3633-1.8711-3.7383-4.625-3.7383-7.6758v-194.14c0-5.3125 4.3281-9.7422 9.7422-9.7422 5.3125 0 9.7422 4.3281 9.7422 9.7422v181.75l135.89-34.047v-103.42c0-5.3125 4.3281-9.7422 9.7422-9.7422 5.4102 0 9.7422 4.3281 9.7422 9.7422v111c0 4.4297-3.0508 8.3633-7.3789 9.4453l-155.38 38.867c-0.78906 0.19922-1.5781 0.29688-2.3633 0.29688z"></path>
  <path d="m400 562.75c-0.78906 0-1.5742-0.097656-2.3633-0.29688l-155.28-38.77c-5.2148-1.2773-8.3633-6.5938-7.0859-11.809 1.2773-5.2148 6.5938-8.3633 11.809-7.0859l155.28 38.871c5.2148 1.2773 8.3633 6.5938 7.0859 11.809-1.1797 4.3281-5.1172 7.2812-9.4453 7.2812z"></path>
  <path d="m400 562.75c-4.3281 0-8.2656-2.9531-9.4453-7.3789-1.2773-5.2148 1.8711-10.43 7.0859-11.809l155.28-38.867c5.2148-1.2773 10.43 1.8711 11.809 7.0859 1.3789 5.2148-1.8711 10.43-7.0859 11.809l-155.38 38.867c-0.69141 0.19141-1.4805 0.29297-2.2656 0.29297z"></path>
  <path d="m448.51 485.11c-3.2461 0-6.3945-1.6719-8.2656-4.5273l-48.512-77.637c-1.6719-2.6562-1.9688-5.9023-0.78906-8.7578 1.1797-2.8555 3.6406-5.0195 6.6914-5.8047l155.28-38.867c3.8359-0.98438 7.9688 0.49219 10.234 3.7383l48.512 67.996c1.7695 2.5586 2.2617 5.8047 1.2773 8.7578s-3.3438 5.2148-6.2969 6.1992l-155.18 48.41c-0.98438 0.29688-1.9688 0.49219-2.9492 0.49219zm-33.164-81.18 37.492 60.023 135.4-42.312-36.898-51.66z"></path>
  <path d="m555.37 368.61c-0.78906 0-1.5742-0.097656-2.3633-0.29688l-153.01-38.277-153.01 38.277c-5.2148 1.2773-10.43-1.8711-11.809-7.0859-1.2773-5.2148 1.8711-10.43 7.0859-11.809l155.38-38.867c1.5742-0.39453 3.1484-0.39453 4.7227 0l155.38 38.867c5.2148 1.2773 8.3633 6.5938 7.0859 11.809-1.1875 4.4297-5.1211 7.3828-9.4531 7.3828z"></path>
  <path d="m477.64 387.7c-5.3125 0-9.7422-4.3281-9.7422-9.7422v-94.367c0-47.035 38.277-85.215 85.215-85.215 5.3125 0 9.7422 4.3281 9.7422 9.7422 0 5.4102-4.3281 9.7422-9.7422 9.7422-36.309 0-65.828 29.52-65.828 65.828v94.367c0.097656 5.3125-4.2344 9.6445-9.6445 9.6445z"></path>
  <path d="m322.36 388.19c-5.3125 0-9.7422-4.3281-9.7422-9.7422v-84.527c0-36.309-29.52-65.828-65.828-65.828-5.3125 0-9.7422-4.3281-9.7422-9.7422 0-5.3125 4.3281-9.7422 9.7422-9.7422 47.035 0 85.215 38.18 85.215 85.215v84.527c0 5.4102-4.3281 9.8398-9.6445 9.8398z"></path>
  <path d="m429.12 399.9c-5.3125 0-9.7422-4.3281-9.7422-9.7422v-113.45c0-5.3125 4.3281-9.7422 9.7422-9.7422 5.4102 0 9.7422 4.3281 9.7422 9.7422v113.46c0 5.4102-4.4297 9.7383-9.7422 9.7383z"></path>
  <path d="m380.61 402.56c-5.3125 0-9.7422-4.3281-9.7422-9.7422v-171.02c0-5.3125 4.3281-9.7422 9.7422-9.7422 5.3125 0 9.7422 4.3281 9.7422 9.7422v171.02c-0.097657 5.4102-4.4297 9.7422-9.7422 9.7422z"></path>
 </g>

      </g>
      </svg>