<?xml version="1.0" encoding="UTF-8"?>
<!DOCTYPE svg PUBLIC "-//W3C//DTD SVG 1.1//EN" "http://www.w3.org/Graphics/SVG/1.1/DTD/svg11.dtd">
<svg xmlns="http://www.w3.org/2000/svg" version="1.1" width="100px" height="100px" style="shape-rendering:geometricPrecision; text-rendering:geometricPrecision; image-rendering:optimizeQuality; fill-rule:evenodd; clip-rule:evenodd" xmlns:xlink="http://www.w3.org/1999/xlink">
<g><path style="opacity:0.869" fill="#fefffe" d="M 46.5,11.5 C 52.3094,10.5742 56.6427,12.5742 59.5,17.5C 65.4725,18.3303 71.4725,18.8303 77.5,19C 79.0488,20.214 80.2155,21.714 81,23.5C 81.6667,43.1667 81.6667,62.8333 81,82.5C 80.1667,84.6667 78.6667,86.1667 76.5,87C 58.8333,87.6667 41.1667,87.6667 23.5,87C 21.3333,86.1667 19.8333,84.6667 19,82.5C 18.3333,62.8333 18.3333,43.1667 19,23.5C 19.7845,21.714 20.9512,20.214 22.5,19C 28.5275,18.8303 34.5275,18.3303 40.5,17.5C 41.6744,14.5971 43.6744,12.5971 46.5,11.5 Z M 48.5,19.5 C 50.9477,19.0847 52.2811,20.0847 52.5,22.5C 50.8333,26.5 49.1667,26.5 47.5,22.5C 47.685,21.4163 48.0183,20.4163 48.5,19.5 Z M 26.5,26.5 C 28.5,26.5 30.5,26.5 32.5,26.5C 32.5,29.8333 32.5,33.1667 32.5,36.5C 44.1667,36.5 55.8333,36.5 67.5,36.5C 67.5,33.1667 67.5,29.8333 67.5,26.5C 69.5,26.5 71.5,26.5 73.5,26.5C 73.5,44.1667 73.5,61.8333 73.5,79.5C 57.8333,79.5 42.1667,79.5 26.5,79.5C 26.5,61.8333 26.5,44.1667 26.5,26.5 Z"/></g>
</svg>
