<svg id="svg" fill="#ffffff" stroke="#ffffff" width="226" height="226" version="1.1" viewBox="124 124 552 552" xmlns="http://www.w3.org/2000/svg" stroke-width="17">
    <g id="IconSvg_bgCarrier" stroke-width="0"></g>
    <g id="IconSvg_tracerCarrier" stroke-linecap="round" stroke-linejoin="round" stroke="#b5b5b5" stroke-width="32">
      <path xmlns="http://www.w3.org/2000/svg" d="m637.14 258.02-91.625-91.027c-1.7539-1.7422-4.1289-2.7227-6.6055-2.7227h-165.72c-13.367 0-24.242 10.875-24.242 24.242 0 20.062-12.988 32.59-25.145 37.621s-30.195 5.3594-44.383-8.8281c-4.5781-4.5781-10.664-7.1016-17.141-7.1016-6.4766 0-12.562 2.5195-17.141 7.1016l-32.012 32.012c-9.4531 9.4531-9.4531 24.828 0 34.281 14.164 14.164 13.828 32.207 8.7891 44.367-5.0391 12.16-17.555 25.152-37.586 25.152-13.367 0-24.242 10.875-24.242 24.242v45.27c0 13.367 10.875 24.242 24.242 24.242 20.031 0 32.555 12.992 37.586 25.152 5.0391 12.16 5.375 30.203-8.7891 44.367-9.4531 9.4531-9.4531 24.828 0 34.281l32.012 32.012c9.4531 9.4531 24.828 9.4531 34.281 0 14.164-14.164 32.207-13.828 44.367-8.7891 12.16 5.0391 25.152 17.555 25.152 37.586 0 13.367 10.875 24.242 24.242 24.242l257.35 0.003906c5.1758 0 9.3711-4.1914 9.3711-9.3711v-361.69c0.007812-2.4961-0.98828-4.8867-2.7578-6.6445zm-88.859-61.859 59.52 59.129h-59.52zm-161.83 291.13c-44.02-4.6914-78.426-42.051-78.426-87.297 0-45.242 34.406-82.605 78.426-87.297zm-13.262 129.7c-3.0352 0-5.5-2.4648-5.5-5.5 0-24.48-14.07-45.52-36.727-54.906-7.5977-3.1484-15.445-4.6875-23.164-4.6875-15.297 0-30.125 6.0352-41.629 17.539-2.1406 2.1445-5.6328 2.1445-7.7773 0l-32.012-32.012c-2.1406-2.1406-2.1406-5.6328 0-7.7773 17.312-17.312 22.234-42.141 12.852-64.793-9.3828-22.652-30.422-36.727-54.906-36.727-3.0352 0-5.5-2.4648-5.5-5.5v-45.27c0-3.0352 2.4648-5.5 5.5-5.5 24.48 0 45.52-14.07 54.906-36.727 9.3828-22.656 4.457-47.48-12.852-64.793-2.1406-2.1406-2.1406-5.6328 0-7.7773l32.012-32.012c1.0391-1.0391 2.418-1.6094 3.8906-1.6094 1.4688 0 2.8516 0.57031 3.8906 1.6094 17.328 17.328 42.164 22.266 64.809 12.891 22.645-9.3789 36.711-30.434 36.711-54.941 0-3.0352 2.4648-5.4961 5.5-5.4961h13.262v110.86c-54.375 4.7617-97.168 50.531-97.168 106.12 0 55.586 42.797 101.36 97.168 106.12v110.86l-13.266 0.003906zm32.008 0.003906v-433.98h124.35v81.652c0 5.1758 4.1914 9.3711 9.3711 9.3711h82.254v342.95zm167.16-277.16c0 5.1758-4.1914 9.3711-9.3711 9.3711h-120.76c-5.1758 0-9.3711-4.1914-9.3711-9.3711s4.1914-9.3711 9.3711-9.3711h120.76c5.1758 0 9.3711 4.1914 9.3711 9.3711zm0 67.68c0 5.1758-4.1914 9.3711-9.3711 9.3711h-120.76c-5.1758 0-9.3711-4.1914-9.3711-9.3711 0-5.1797 4.1914-9.3711 9.3711-9.3711h120.76c5.1758 0 9.3711 4.1953 9.3711 9.3711zm-139.5-135.36c0-5.1758 4.1914-9.3711 9.3711-9.3711h53.273c5.1758 0 9.3711 4.1914 9.3711 9.3711 0 5.1797-4.1914 9.3711-9.3711 9.3711h-53.277c-5.1758 0-9.3672-4.1914-9.3672-9.3711zm139.5 203.03c0 5.1758-4.1914 9.3711-9.3711 9.3711h-120.76c-5.1758 0-9.3711-4.1914-9.3711-9.3711 0-5.1797 4.1914-9.3711 9.3711-9.3711h120.76c5.1758 0 9.3711 4.1992 9.3711 9.3711zm0 67.68c0 5.1758-4.1914 9.3711-9.3711 9.3711h-120.76c-5.1758 0-9.3711-4.1914-9.3711-9.3711s4.1914-9.3711 9.3711-9.3711h120.76c5.1758 0.003907 9.3711 4.1953 9.3711 9.3711z"></path>

      </g>
     <g id="IconSvg_iconCarrier">
      <path xmlns="http://www.w3.org/2000/svg" d="m637.14 258.02-91.625-91.027c-1.7539-1.7422-4.1289-2.7227-6.6055-2.7227h-165.72c-13.367 0-24.242 10.875-24.242 24.242 0 20.062-12.988 32.59-25.145 37.621s-30.195 5.3594-44.383-8.8281c-4.5781-4.5781-10.664-7.1016-17.141-7.1016-6.4766 0-12.562 2.5195-17.141 7.1016l-32.012 32.012c-9.4531 9.4531-9.4531 24.828 0 34.281 14.164 14.164 13.828 32.207 8.7891 44.367-5.0391 12.16-17.555 25.152-37.586 25.152-13.367 0-24.242 10.875-24.242 24.242v45.27c0 13.367 10.875 24.242 24.242 24.242 20.031 0 32.555 12.992 37.586 25.152 5.0391 12.16 5.375 30.203-8.7891 44.367-9.4531 9.4531-9.4531 24.828 0 34.281l32.012 32.012c9.4531 9.4531 24.828 9.4531 34.281 0 14.164-14.164 32.207-13.828 44.367-8.7891 12.16 5.0391 25.152 17.555 25.152 37.586 0 13.367 10.875 24.242 24.242 24.242l257.35 0.003906c5.1758 0 9.3711-4.1914 9.3711-9.3711v-361.69c0.007812-2.4961-0.98828-4.8867-2.7578-6.6445zm-88.859-61.859 59.52 59.129h-59.52zm-161.83 291.13c-44.02-4.6914-78.426-42.051-78.426-87.297 0-45.242 34.406-82.605 78.426-87.297zm-13.262 129.7c-3.0352 0-5.5-2.4648-5.5-5.5 0-24.48-14.07-45.52-36.727-54.906-7.5977-3.1484-15.445-4.6875-23.164-4.6875-15.297 0-30.125 6.0352-41.629 17.539-2.1406 2.1445-5.6328 2.1445-7.7773 0l-32.012-32.012c-2.1406-2.1406-2.1406-5.6328 0-7.7773 17.312-17.312 22.234-42.141 12.852-64.793-9.3828-22.652-30.422-36.727-54.906-36.727-3.0352 0-5.5-2.4648-5.5-5.5v-45.27c0-3.0352 2.4648-5.5 5.5-5.5 24.48 0 45.52-14.07 54.906-36.727 9.3828-22.656 4.457-47.48-12.852-64.793-2.1406-2.1406-2.1406-5.6328 0-7.7773l32.012-32.012c1.0391-1.0391 2.418-1.6094 3.8906-1.6094 1.4688 0 2.8516 0.57031 3.8906 1.6094 17.328 17.328 42.164 22.266 64.809 12.891 22.645-9.3789 36.711-30.434 36.711-54.941 0-3.0352 2.4648-5.4961 5.5-5.4961h13.262v110.86c-54.375 4.7617-97.168 50.531-97.168 106.12 0 55.586 42.797 101.36 97.168 106.12v110.86l-13.266 0.003906zm32.008 0.003906v-433.98h124.35v81.652c0 5.1758 4.1914 9.3711 9.3711 9.3711h82.254v342.95zm167.16-277.16c0 5.1758-4.1914 9.3711-9.3711 9.3711h-120.76c-5.1758 0-9.3711-4.1914-9.3711-9.3711s4.1914-9.3711 9.3711-9.3711h120.76c5.1758 0 9.3711 4.1914 9.3711 9.3711zm0 67.68c0 5.1758-4.1914 9.3711-9.3711 9.3711h-120.76c-5.1758 0-9.3711-4.1914-9.3711-9.3711 0-5.1797 4.1914-9.3711 9.3711-9.3711h120.76c5.1758 0 9.3711 4.1953 9.3711 9.3711zm-139.5-135.36c0-5.1758 4.1914-9.3711 9.3711-9.3711h53.273c5.1758 0 9.3711 4.1914 9.3711 9.3711 0 5.1797-4.1914 9.3711-9.3711 9.3711h-53.277c-5.1758 0-9.3672-4.1914-9.3672-9.3711zm139.5 203.03c0 5.1758-4.1914 9.3711-9.3711 9.3711h-120.76c-5.1758 0-9.3711-4.1914-9.3711-9.3711 0-5.1797 4.1914-9.3711 9.3711-9.3711h120.76c5.1758 0 9.3711 4.1992 9.3711 9.3711zm0 67.68c0 5.1758-4.1914 9.3711-9.3711 9.3711h-120.76c-5.1758 0-9.3711-4.1914-9.3711-9.3711s4.1914-9.3711 9.3711-9.3711h120.76c5.1758 0.003907 9.3711 4.1953 9.3711 9.3711z"></path>

      </g>
      </svg>