<?xml version="1.0" encoding="UTF-8"?>
<!DOCTYPE svg PUBLIC "-//W3C//DTD SVG 1.1//EN" "http://www.w3.org/Graphics/SVG/1.1/DTD/svg11.dtd">
<svg xmlns="http://www.w3.org/2000/svg" version="1.1" width="75px" height="75px" style="shape-rendering:geometricPrecision; text-rendering:geometricPrecision; image-rendering:optimizeQuality; fill-rule:evenodd; clip-rule:evenodd" xmlns:xlink="http://www.w3.org/1999/xlink">
<g><path style="opacity:0.937" fill="#fefffe" d="M 12.5,8.5 C 28.8367,8.3334 45.1701,8.50007 61.5,9C 62.4162,9.37424 63.2496,9.87424 64,10.5C 65.1397,19.2365 65.6397,28.0699 65.5,37C 72.6667,63.1667 63.1667,72.6667 37,65.5C 28.8333,65.3333 20.6667,65.1667 12.5,65C 11.5838,64.6258 10.7504,64.1258 10,63.5C 8.36246,46.5914 8.02912,29.5914 9,12.5C 9.68972,10.6498 10.8564,9.31643 12.5,8.5 Z M 43.5,20.5 C 45.9635,22.4611 48.2968,24.6278 50.5,27C 42.1667,35.3333 33.8333,43.6667 25.5,52C 23.1902,52.4966 20.8568,52.6633 18.5,52.5C 18.3367,50.1432 18.5034,47.8098 19,45.5C 27.369,37.2983 35.5357,28.965 43.5,20.5 Z M 38.5,46.5 C 44.1667,46.5 49.8333,46.5 55.5,46.5C 55.5,48.5 55.5,50.5 55.5,52.5C 48.1591,52.6663 40.8258,52.4997 33.5,52C 35.3734,50.2962 37.0401,48.4628 38.5,46.5 Z"/></g>
</svg>
