<?xml version="1.0" encoding="UTF-8"?>
<!DOCTYPE svg PUBLIC "-//W3C//DTD SVG 1.1//EN" "http://www.w3.org/Graphics/SVG/1.1/DTD/svg11.dtd">
<svg xmlns="http://www.w3.org/2000/svg" version="1.1" width="1913px" height="1913px" style="shape-rendering:geometricPrecision; text-rendering:geometricPrecision; image-rendering:optimizeQuality; fill-rule:evenodd; clip-rule:evenodd" xmlns:xlink="http://www.w3.org/1999/xlink">
<g><path style="opacity:0.999" fill="#fefffe" d="M 216.5,-0.5 C 263.833,-0.5 311.167,-0.5 358.5,-0.5C 358.333,241.167 358.5,482.834 359,724.5C 364.669,774.823 390.836,809.656 437.5,829C 445.948,831.945 454.615,833.945 463.5,835C 791.833,835.667 1120.17,835.667 1448.5,835C 1501.19,825.915 1535.03,795.748 1550,744.5C 1551.65,737.93 1552.65,731.264 1553,724.5C 1553.5,482.834 1553.67,241.167 1553.5,-0.5C 1600.83,-0.5 1648.17,-0.5 1695.5,-0.5C 1778.83,9.90218 1841.67,51.2355 1884,123.5C 1899.49,152.795 1908.99,183.795 1912.5,216.5C 1912.5,709.5 1912.5,1202.5 1912.5,1695.5C 1902.1,1779.83 1860.1,1843 1786.5,1885C 1757.78,1899.92 1727.44,1909.09 1695.5,1912.5C 1202.5,1912.5 709.5,1912.5 216.5,1912.5C 132.166,1902.1 68.9994,1860.1 27,1786.5C 12.0755,1757.78 2.90886,1727.44 -0.5,1695.5C -0.5,1202.5 -0.5,709.5 -0.5,216.5C 9.90218,133.165 51.2355,70.332 123.5,28C 152.795,12.5096 183.795,3.0096 216.5,-0.5 Z M 1125.5,239.5 C 1155.21,237.098 1176.71,249.098 1190,275.5C 1191.8,280.375 1193.14,285.375 1194,290.5C 1194.67,375.5 1194.67,460.5 1194,545.5C 1187.3,577.536 1167.63,594.536 1135,596.5C 1103.76,594.261 1084.43,577.928 1077,547.5C 1076.33,461.167 1076.33,374.833 1077,288.5C 1083.34,262.323 1099.51,245.99 1125.5,239.5 Z"/></g>
<g><path style="opacity:0.998" fill="#fefffe" d="M 477.5,-0.5 C 796.5,-0.5 1115.5,-0.5 1434.5,-0.5C 1434.67,221.834 1434.5,444.167 1434,666.5C 1427.91,695.139 1410.41,711.972 1381.5,717C 1097.83,717.667 814.167,717.667 530.5,717C 501.63,711.983 484.13,695.149 478,666.5C 477.5,444.167 477.333,221.834 477.5,-0.5 Z M 1125.5,239.5 C 1099.51,245.99 1083.34,262.323 1077,288.5C 1076.33,374.833 1076.33,461.167 1077,547.5C 1084.43,577.928 1103.76,594.261 1135,596.5C 1167.63,594.536 1187.3,577.536 1194,545.5C 1194.67,460.5 1194.67,375.5 1194,290.5C 1193.14,285.375 1191.8,280.375 1190,275.5C 1176.71,249.098 1155.21,237.098 1125.5,239.5 Z"/></g>
</svg>
