<svg id="svg" fill="#f4f0ff" stroke="#f4f0ff" width="207" height="207" version="1.1" viewBox="143 143 514 514" xmlns="http://www.w3.org/2000/svg" stroke-width="6">
    <g id="IconSvg_bgCarrier" stroke-width="0"></g>
    <g id="IconSvg_tracerCarrier" stroke-linecap="round" stroke-linejoin="round" stroke="#b8bad1" stroke-width="20">
      <path xmlns="http://www.w3.org/2000/svg" d="m480.61 290.17c0-10.078-10.078-18.137-20.152-18.137-10.078 0-20.152 8.0625-20.152 18.137v140.06h-86.656l25.191-25.191c7.0547-7.0547 5.543-20.152-1.5117-27.207s-20.152-8.5664-27.207-1.5117l-58.441 58.949c-1.0078 1.0078-2.0156 2.5195-2.5195 4.0312-2.0156 3.5273-3.5273 7.0547-3.5273 11.082 0 4.0312 1.5117 8.0625 3.5273 11.082 0.50391 1.5117 1.5117 3.0234 2.5195 4.0312l58.945 58.945c7.0547 7.0547 20.152 5.543 27.207-1.5117 7.0547-7.0547 8.5664-20.152 1.5117-27.207l-25.191-25.191h108.82c10.078 0 18.137-10.078 18.137-20.152v-0.50391-0.50391-159.2z"></path>

      </g>
     <g id="IconSvg_iconCarrier">
      <path xmlns="http://www.w3.org/2000/svg" d="m480.61 290.17c0-10.078-10.078-18.137-20.152-18.137-10.078 0-20.152 8.0625-20.152 18.137v140.06h-86.656l25.191-25.191c7.0547-7.0547 5.543-20.152-1.5117-27.207s-20.152-8.5664-27.207-1.5117l-58.441 58.949c-1.0078 1.0078-2.0156 2.5195-2.5195 4.0312-2.0156 3.5273-3.5273 7.0547-3.5273 11.082 0 4.0312 1.5117 8.0625 3.5273 11.082 0.50391 1.5117 1.5117 3.0234 2.5195 4.0312l58.945 58.945c7.0547 7.0547 20.152 5.543 27.207-1.5117 7.0547-7.0547 8.5664-20.152 1.5117-27.207l-25.191-25.191h108.82c10.078 0 18.137-10.078 18.137-20.152v-0.50391-0.50391-159.2z"></path>

      </g>
      </svg>