<?xml version="1.0" encoding="UTF-8"?>
<!DOCTYPE svg PUBLIC "-//W3C//DTD SVG 1.1//EN" "http://www.w3.org/Graphics/SVG/1.1/DTD/svg11.dtd">
<svg xmlns="http://www.w3.org/2000/svg" version="1.1" width="1913px" height="1913px" style="shape-rendering:geometricPrecision; text-rendering:geometricPrecision; image-rendering:optimizeQuality; fill-rule:evenodd; clip-rule:evenodd" xmlns:xlink="http://www.w3.org/1999/xlink">
<g><path style="opacity:0.99" fill="#fefffe" d="M -0.5,384.5 C -0.5,378.167 -0.5,371.833 -0.5,365.5C 4.65222,346.182 16.9855,334.015 36.5,329C 145.167,328.667 253.833,328.333 362.5,328C 385.781,249.72 437.448,202.387 517.5,186C 585.21,176.79 642.71,196.624 690,245.5C 739.913,304.626 752.247,370.959 727,444.5C 697.546,513.335 645.713,553.501 571.5,565C 494.716,571.349 433.882,543.515 389,481.5C 377.315,462.961 368.482,443.128 362.5,422C 253.833,421.667 145.167,421.333 36.5,421C 16.9855,415.985 4.65222,403.818 -0.5,384.5 Z M 536.5,277.5 C 576.557,274.948 608.057,289.948 631,322.5C 652.809,360.916 651.143,398.25 626,434.5C 594.497,470.669 555.997,480.836 510.5,465C 464.816,442.137 445.65,405.304 453,354.5C 464.736,311.261 492.569,285.594 536.5,277.5 Z"/></g>
<g><path style="opacity:0.996" fill="#fefffe" d="M 1912.5,365.5 C 1912.5,371.833 1912.5,378.167 1912.5,384.5C 1907.35,403.818 1895.01,415.985 1875.5,421C 1545.17,421.667 1214.83,421.667 884.5,421C 860.906,414.736 848.239,399.403 846.5,375C 848.239,350.597 860.906,335.264 884.5,329C 1214.83,328.333 1545.17,328.333 1875.5,329C 1895.01,334.015 1907.35,346.182 1912.5,365.5 Z"/></g>
<g><path style="opacity:0.992" fill="#fefffe" d="M -0.5,959.5 C -0.5,952.833 -0.5,946.167 -0.5,939.5C 4.9759,921.192 16.9759,909.358 35.5,904C 314.833,903.667 594.167,903.333 873.5,903C 893.972,832.527 939.306,786.527 1009.5,765C 1075.54,749.136 1134.54,762.803 1186.5,806C 1244.26,861.307 1263.1,927.807 1243,1005.5C 1221.34,1070.5 1177.84,1113.33 1112.5,1134C 1031.19,1153.23 963.352,1131.39 909,1068.5C 892.418,1047 880.918,1023 874.5,996.5C 595.5,996.667 316.5,996.5 37.5,996C 17.4046,991.402 4.7379,979.235 -0.5,959.5 Z M 1046.5,852.5 C 1088.73,849.197 1121.23,865.197 1144,900.5C 1164.84,940.953 1161.17,978.953 1133,1014.5C 1098.2,1049.19 1058.37,1056.36 1013.5,1036C 972.132,1010.41 955.965,973.581 965,925.5C 977.57,884.758 1004.74,860.425 1046.5,852.5 Z"/></g>
<g><path style="opacity:0.994" fill="#fefffe" d="M 1912.5,940.5 C 1912.5,946.833 1912.5,953.167 1912.5,959.5C 1907.26,979.235 1894.6,991.402 1874.5,996C 1715.17,996.667 1555.83,996.667 1396.5,996C 1372.27,990.196 1359.6,974.862 1358.5,950C 1359.36,925.47 1371.69,910.136 1395.5,904C 1555.83,903.333 1716.17,903.333 1876.5,904C 1895.45,909.447 1907.45,921.614 1912.5,940.5 Z"/></g>
<g><path style="opacity:0.991" fill="#fefffe" d="M -0.5,1546.5 C -0.5,1540.17 -0.5,1533.83 -0.5,1527.5C 4.65222,1508.18 16.9855,1496.02 36.5,1491C 230.833,1490.5 425.166,1490.33 619.5,1490.5C 634.9,1432.93 669.234,1390.76 722.5,1364C 781.619,1337.96 839.953,1339.63 897.5,1369C 971.788,1414.75 1003.95,1481.25 994,1568.5C 978.136,1645.36 932.969,1696.2 858.5,1721C 780.756,1740.08 714.59,1720.58 660,1662.5C 640.183,1639.53 626.683,1613.2 619.5,1583.5C 425.166,1583.67 230.833,1583.5 36.5,1583C 16.9855,1577.98 4.65222,1565.82 -0.5,1546.5 Z M 793.5,1439.5 C 846.007,1437.65 881.173,1461.32 899,1510.5C 909.231,1559.17 893.398,1596.67 851.5,1623C 815.443,1640.29 780.777,1637.96 747.5,1616C 729.238,1602.07 716.905,1584.07 710.5,1562C 718.5,1545.33 718.5,1528.67 710.5,1512C 723.794,1471.2 751.461,1447.03 793.5,1439.5 Z"/></g>
<g><path style="opacity:0.995" fill="#fefffe" d="M 1912.5,1527.5 C 1912.5,1533.83 1912.5,1540.17 1912.5,1546.5C 1907.35,1565.82 1895.01,1577.98 1875.5,1583C 1633.83,1583.67 1392.17,1583.67 1150.5,1583C 1126.99,1576.64 1114.66,1561.31 1113.5,1537C 1114.66,1512.69 1126.99,1497.36 1150.5,1491C 1392.17,1490.33 1633.83,1490.33 1875.5,1491C 1895.01,1496.02 1907.35,1508.18 1912.5,1527.5 Z"/></g>
</svg>
