<?xml version="1.0" encoding="UTF-8"?>
<!DOCTYPE svg PUBLIC "-//W3C//DTD SVG 1.1//EN" "http://www.w3.org/Graphics/SVG/1.1/DTD/svg11.dtd">
<svg xmlns="http://www.w3.org/2000/svg" version="1.1" width="75px" height="75px" style="shape-rendering:geometricPrecision; text-rendering:geometricPrecision; image-rendering:optimizeQuality; fill-rule:evenodd; clip-rule:evenodd" xmlns:xlink="http://www.w3.org/1999/xlink">
<g><path style="opacity:0.956" fill="#fefffe" d="M 6.5,8.5 C 26.8361,8.33338 47.1694,8.50004 67.5,9C 68.6587,27.4265 68.8253,45.9265 68,64.5C 47.5731,65.6595 27.0731,65.8261 6.5,65C 5.17273,46.1667 5.17273,27.3334 6.5,8.5 Z M 20.5,25.5 C 25.2391,28.7308 29.5724,32.5642 33.5,37C 29.6516,41.0156 25.6516,44.8489 21.5,48.5C 20.1667,47.8333 19.1667,46.8333 18.5,45.5C 20.9836,42.5157 23.6503,39.6824 26.5,37C 24,34.5 21.5,32 19,29.5C 18.7003,27.9343 19.2003,26.601 20.5,25.5 Z M 37.5,46.5 C 43.5,46.5 49.5,46.5 55.5,46.5C 55.5,48.5 55.5,50.5 55.5,52.5C 49.5,52.5 43.5,52.5 37.5,52.5C 37.5,50.5 37.5,48.5 37.5,46.5 Z"/></g>
</svg>
