<?xml version="1.0" encoding="UTF-8"?>
<!DOCTYPE svg PUBLIC "-//W3C//DTD SVG 1.1//EN" "http://www.w3.org/Graphics/SVG/1.1/DTD/svg11.dtd">
<svg xmlns="http://www.w3.org/2000/svg" version="1.1" width="75px" height="75px" style="shape-rendering:geometricPrecision; text-rendering:geometricPrecision; image-rendering:optimizeQuality; fill-rule:evenodd; clip-rule:evenodd" xmlns:xlink="http://www.w3.org/1999/xlink">
<g><path style="opacity:0.763" fill="#fefffe" d="M 30.5,13.5 C 51.9797,12.1459 61.8131,22.1459 60,43.5C 54.8648,57.1557 45.0314,62.6557 30.5,60C 16.8443,54.8648 11.3443,45.0314 14,30.5C 16.3493,21.6522 21.8493,15.9855 30.5,13.5 Z M 33.5,18.5 C 34.4682,20.6074 34.8016,22.9407 34.5,25.5C 32.8967,25.6882 31.5634,25.1882 30.5,24C 31.6394,22.2196 32.6394,20.3863 33.5,18.5 Z M 39.5,18.5 C 41.0542,19.9142 42.3875,21.5808 43.5,23.5C 42.6798,25.1112 41.3464,25.7778 39.5,25.5C 39.5,23.1667 39.5,20.8333 39.5,18.5 Z M 25.5,20.5 C 27.6559,20.8718 27.6559,21.8718 25.5,23.5C 24.4376,22.5754 24.4376,21.5754 25.5,20.5 Z M 46.5,21.5 C 47.7434,20.2625 48.7434,20.5959 49.5,22.5C 49.1667,22.8333 48.8333,23.1667 48.5,23.5C 47.8182,22.7573 47.1515,22.0906 46.5,21.5 Z M 20.5,26.5 C 21.5832,26.5394 22.5832,26.8728 23.5,27.5C 24.4742,29.7427 24.8076,32.076 24.5,34.5C 22.1667,34.5 19.8333,34.5 17.5,34.5C 17.9402,31.6202 18.9402,28.9535 20.5,26.5 Z M 51.5,26.5 C 54.639,28.085 56.3056,30.7517 56.5,34.5C 54.1667,34.5 51.8333,34.5 49.5,34.5C 49.1315,31.4669 49.7982,28.8002 51.5,26.5 Z M 28.5,28.5 C 30.4352,29.1495 32.4352,29.4828 34.5,29.5C 34.5,31.1667 34.5,32.8333 34.5,34.5C 32.5,34.5 30.5,34.5 28.5,34.5C 28.5,32.5 28.5,30.5 28.5,28.5 Z M 43.5,28.5 C 45.2798,29.9899 45.9465,31.9899 45.5,34.5C 43.5,34.5 41.5,34.5 39.5,34.5C 39.5,32.8333 39.5,31.1667 39.5,29.5C 41.099,29.7678 42.4324,29.4345 43.5,28.5 Z M 17.5,39.5 C 19.8333,39.5 22.1667,39.5 24.5,39.5C 22.7787,50.1674 20.4454,50.1674 17.5,39.5 Z M 28.5,39.5 C 30.5,39.5 32.5,39.5 34.5,39.5C 34.5,41.1667 34.5,42.8333 34.5,44.5C 32.7376,44.3573 31.0709,44.6906 29.5,45.5C 28.5344,43.604 28.2011,41.604 28.5,39.5 Z M 39.5,39.5 C 41.5,39.5 43.5,39.5 45.5,39.5C 46.368,44.9787 44.368,46.6453 39.5,44.5C 39.5,42.8333 39.5,41.1667 39.5,39.5 Z M 49.5,39.5 C 51.8333,39.5 54.1667,39.5 56.5,39.5C 53.5546,50.1674 51.2213,50.1674 49.5,39.5 Z M 31.5,48.5 C 32.5,48.5 33.5,48.5 34.5,48.5C 35.254,57.027 33.9207,57.527 30.5,50C 31.056,49.6174 31.3893,49.1174 31.5,48.5 Z M 39.5,48.5 C 41.1033,48.3118 42.4366,48.8118 43.5,50C 40.0793,57.527 38.746,57.027 39.5,48.5 Z M 24.5,50.5 C 25.9221,50.7496 26.9221,51.583 27.5,53C 25.5106,53.5192 24.5106,52.6859 24.5,50.5 Z M 47.5,50.5 C 50.0118,51.2162 50.0118,52.2162 47.5,53.5C 46.913,52.7666 46.913,51.7666 47.5,50.5 Z"/></g>
</svg>
