<svg id="svg" fill="#ffffff" stroke="#ffffff" width="261" height="261" version="1.1" viewBox="129 129 542 542" xmlns="http://www.w3.org/2000/svg" stroke-width="18">
    <g id="IconSvg_bgCarrier" stroke-width="0"></g>
    <g id="IconSvg_tracerCarrier" stroke-linecap="round" stroke-linejoin="round" stroke="#CCCCCC" stroke-width="44">
      <g xmlns="http://www.w3.org/2000/svg">
  <path d="m573.18 179.58h-346.37c-12.523 0-24.539 4.9766-33.398 13.832-8.8555 8.8594-13.832 20.875-13.832 33.398v188.93h440.83v-188.93c0-12.523-4.9766-24.539-13.832-33.398-8.8594-8.8555-20.871-13.832-33.398-13.832zm-314.88 94.465c-4.1758 0-8.1797-1.6602-11.133-4.6133s-4.6094-6.957-4.6094-11.133 1.6562-8.1797 4.6094-11.133 6.957-4.6094 11.133-4.6094 8.1797 1.6562 11.133 4.6094 4.6133 6.957 4.6133 11.133-1.6602 8.1797-4.6133 11.133-6.957 4.6133-11.133 4.6133zm47.23 0h0.003906c-4.1758 0-8.1797-1.6602-11.133-4.6133s-4.6133-6.957-4.6133-11.133 1.6602-8.1797 4.6133-11.133 6.957-4.6094 11.133-4.6094c4.1758 0 8.1797 1.6562 11.133 4.6094s4.6094 6.957 4.6094 11.133-1.6562 8.1797-4.6094 11.133-6.957 4.6133-11.133 4.6133zm47.23 0h0.003906c-4.1758 0-8.1797-1.6602-11.133-4.6133-2.9531-2.9531-4.6094-6.957-4.6094-11.133s1.6562-8.1797 4.6094-11.133c2.9531-2.9531 6.957-4.6094 11.133-4.6094s8.1797 1.6562 11.133 4.6094c2.9531 2.9531 4.6133 6.957 4.6133 11.133s-1.6602 8.1797-4.6133 11.133c-2.9531 2.9531-6.957 4.6133-11.133 4.6133z"></path>
  <path d="m211.07 447.23h-31.488v31.488c0 12.527 4.9766 24.539 13.832 33.398 8.8594 8.8594 20.875 13.832 33.398 13.832h123.12l-10.547 62.977h-65.336c-5.625 0-10.824 3.0039-13.637 7.875-2.8125 4.8711-2.8125 10.871 0 15.742 2.8125 4.8711 8.0117 7.8711 13.637 7.8711h251.9c5.625 0 10.824-3 13.637-7.8711 2.8125-4.8711 2.8125-10.871 0-15.742-2.8125-4.8711-8.0117-7.875-13.637-7.875h-65.336l-10.547-62.977h123.12c12.527 0 24.539-4.9727 33.398-13.832 8.8555-8.8594 13.832-20.871 13.832-33.398v-31.488z"></path>
 </g>

      </g>
     <g id="IconSvg_iconCarrier">
      <g xmlns="http://www.w3.org/2000/svg">
  <path d="m573.18 179.58h-346.37c-12.523 0-24.539 4.9766-33.398 13.832-8.8555 8.8594-13.832 20.875-13.832 33.398v188.93h440.83v-188.93c0-12.523-4.9766-24.539-13.832-33.398-8.8594-8.8555-20.871-13.832-33.398-13.832zm-314.88 94.465c-4.1758 0-8.1797-1.6602-11.133-4.6133s-4.6094-6.957-4.6094-11.133 1.6562-8.1797 4.6094-11.133 6.957-4.6094 11.133-4.6094 8.1797 1.6562 11.133 4.6094 4.6133 6.957 4.6133 11.133-1.6602 8.1797-4.6133 11.133-6.957 4.6133-11.133 4.6133zm47.23 0h0.003906c-4.1758 0-8.1797-1.6602-11.133-4.6133s-4.6133-6.957-4.6133-11.133 1.6602-8.1797 4.6133-11.133 6.957-4.6094 11.133-4.6094c4.1758 0 8.1797 1.6562 11.133 4.6094s4.6094 6.957 4.6094 11.133-1.6562 8.1797-4.6094 11.133-6.957 4.6133-11.133 4.6133zm47.23 0h0.003906c-4.1758 0-8.1797-1.6602-11.133-4.6133-2.9531-2.9531-4.6094-6.957-4.6094-11.133s1.6562-8.1797 4.6094-11.133c2.9531-2.9531 6.957-4.6094 11.133-4.6094s8.1797 1.6562 11.133 4.6094c2.9531 2.9531 4.6133 6.957 4.6133 11.133s-1.6602 8.1797-4.6133 11.133c-2.9531 2.9531-6.957 4.6133-11.133 4.6133z"></path>
  <path d="m211.07 447.23h-31.488v31.488c0 12.527 4.9766 24.539 13.832 33.398 8.8594 8.8594 20.875 13.832 33.398 13.832h123.12l-10.547 62.977h-65.336c-5.625 0-10.824 3.0039-13.637 7.875-2.8125 4.8711-2.8125 10.871 0 15.742 2.8125 4.8711 8.0117 7.8711 13.637 7.8711h251.9c5.625 0 10.824-3 13.637-7.8711 2.8125-4.8711 2.8125-10.871 0-15.742-2.8125-4.8711-8.0117-7.875-13.637-7.875h-65.336l-10.547-62.977h123.12c12.527 0 24.539-4.9727 33.398-13.832 8.8555-8.8594 13.832-20.871 13.832-33.398v-31.488z"></path>
 </g>

      </g>
      </svg>